<svg width="24" height="24" viewBox="0 0 24 24" fill="none" xmlns="http://www.w3.org/2000/svg">
<path d="M18.8941 17.394L13.5916 22.698C13.3827 22.9071 13.1346 23.0729 12.8615 23.1861C12.5884 23.2993 12.2957 23.3575 12.0001 23.3575C11.7045 23.3575 11.4118 23.2993 11.1387 23.1861C10.8657 23.0729 10.6176 22.9071 10.4086 22.698L5.10612 17.394C4.20069 16.4887 3.48244 15.4139 2.99239 14.2309C2.50233 13.048 2.25007 11.7802 2.25 10.4998C2.24993 9.21938 2.50206 7.9515 2.99198 6.76853C3.48191 5.58556 4.20004 4.51068 5.10537 3.60525C6.0107 2.69982 7.08551 1.98157 8.26842 1.49152C9.45133 1.00146 10.7192 0.7492 11.9996 0.74913C13.28 0.749061 14.5479 1.00119 15.7308 1.49111C16.9138 1.98104 17.9887 2.69917 18.8941 3.6045C19.7996 4.50989 20.5179 5.58478 21.008 6.76779C21.4981 7.9508 21.7503 9.21875 21.7503 10.4992C21.7503 11.7797 21.4981 13.0477 21.008 14.2307C20.5179 15.4137 19.7996 16.4886 18.8941 17.394ZM17.3041 5.196C16.6076 4.49947 15.7807 3.94695 14.8706 3.56999C13.9606 3.19303 12.9852 2.99901 12.0001 2.99901C11.0151 2.99901 10.0397 3.19303 9.12961 3.56999C8.21955 3.94695 7.39265 4.49947 6.69612 5.196C5.99959 5.89253 5.44707 6.71943 5.07011 7.62949C4.69315 8.53956 4.49913 9.51496 4.49913 10.5C4.49913 11.485 4.69315 12.4604 5.07011 13.3705C5.44707 14.2806 5.99959 15.1075 6.69612 15.804L12.0001 21.105L17.3041 15.804C18.0008 15.1075 18.5534 14.2807 18.9304 13.3706C19.3075 12.4605 19.5015 11.4851 19.5015 10.5C19.5015 9.51492 19.3075 8.53949 18.9304 7.62942C18.5534 6.71935 18.0008 5.89246 17.3041 5.196ZM12.0001 13.5C11.6006 13.509 11.2033 13.4382 10.8316 13.2915C10.4598 13.1449 10.1211 12.9255 9.83536 12.6462C9.54958 12.3669 9.32249 12.0333 9.16741 11.665C9.01233 11.2967 8.9324 10.9011 8.9323 10.5015C8.9322 10.1019 9.01193 9.7063 9.16683 9.33793C9.32172 8.96956 9.54865 8.63585 9.83429 8.35639C10.1199 8.07692 10.4585 7.85735 10.8302 7.71054C11.2019 7.56374 11.5991 7.49266 11.9986 7.5015C12.7825 7.51883 13.5284 7.84234 14.0767 8.40276C14.625 8.96318 14.9321 9.71598 14.9323 10.5C14.9325 11.284 14.6257 12.037 14.0777 12.5977C13.5297 13.1584 12.784 13.4823 12.0001 13.5Z" fill="white"/>
</svg>
