<svg width="469" height="531" viewBox="0 0 469 531" fill="none" xmlns="http://www.w3.org/2000/svg">
<rect x="59" width="369" height="531" fill="#B4D0D5"/>
<g filter="url(#filter0_d_134_129)">
<path d="M344.129 339.019L252.104 313.456C261.688 285.153 281.658 172.908 281.658 172.908L348.81 191.562C357.522 193.979 369.002 207.053 367.362 215.453C355.045 278.485 344.112 339.019 344.112 339.019H344.129Z" fill="white" stroke="#0B5243" stroke-width="0.75" stroke-linejoin="round"/>
<path d="M307.077 202.118C304.669 201.634 292.642 198.592 290.951 197.827C288.935 196.981 287.586 194.986 288.03 192.771C288.474 190.555 290.217 189.145 292.557 189.789C294.897 190.434 303.49 192.831 308.683 194.08C311.024 194.604 312.048 196.92 311.604 199.136C311.16 201.352 309.469 202.601 307.077 202.118Z" fill="#0B5243"/>
<path d="M289.106 261.584C287.398 261.242 278.891 259.086 277.695 258.542C276.277 257.938 275.303 256.528 275.628 254.957C275.936 253.385 277.183 252.378 278.84 252.841C280.497 253.305 286.595 254.997 290.251 255.883C291.908 256.246 292.643 257.898 292.318 259.469C292.01 261.04 290.815 261.927 289.106 261.584Z" fill="#0B5243"/>
<path d="M352.893 228.003C346.572 226.734 294.521 212.593 291.77 211.706C289.02 210.82 288.354 210.659 286.799 210.115C285.928 209.833 285.398 208.785 285.638 207.798C285.86 206.791 286.765 206.207 287.636 206.489C287.636 206.489 288.798 206.852 292.607 208.08C304.822 211.988 353.73 224.377 353.73 224.377C354.601 224.659 355.13 225.707 354.891 226.694C354.669 227.701 353.764 228.285 352.893 228.003Z" fill="#83BAA0"/>
<path d="M350.62 239.062C344.299 237.793 292.248 223.652 289.498 222.766C286.748 221.879 286.081 221.718 284.527 221.174C283.656 220.892 283.126 219.845 283.365 218.858C283.587 217.85 284.493 217.266 285.364 217.548C285.364 217.548 286.525 217.911 290.335 219.14C302.549 223.048 351.457 235.436 351.457 235.436C352.328 235.718 352.858 236.766 352.619 237.753C352.397 238.76 351.491 239.344 350.62 239.062Z" fill="#83BAA0"/>
<path d="M334.409 288.839C328.088 287.57 293.308 277.86 290.557 276.974C287.807 276.088 287.141 275.926 285.586 275.383C284.715 275.101 284.186 274.053 284.425 273.066C284.647 272.059 285.552 271.475 286.423 271.757C286.423 271.757 287.585 272.119 291.394 273.348C303.609 277.256 335.246 285.213 335.246 285.213C336.117 285.495 336.647 286.543 336.408 287.53C336.186 288.537 335.28 289.121 334.409 288.839Z" fill="#83BAA0"/>
<path d="M348.366 250.968C342.045 249.699 289.737 235.114 286.987 234.228C284.237 233.341 283.571 233.18 282.016 232.636C281.145 232.354 280.615 231.307 280.854 230.32C281.076 229.313 281.982 228.728 282.853 229.01C282.853 229.01 284.015 229.373 287.824 230.602C300.038 234.51 349.203 247.342 349.203 247.342C350.074 247.624 350.603 248.671 350.364 249.658C350.142 250.666 349.237 251.25 348.366 250.968Z" fill="#83BAA0"/>
<path d="M345.871 263.477C339.551 262.208 287.243 247.623 284.493 246.737C281.743 245.851 281.076 245.69 279.522 245.146C278.651 244.864 278.121 243.816 278.36 242.829C278.582 241.822 279.488 241.238 280.359 241.52C280.359 241.52 281.521 241.882 285.33 243.111C297.544 247.019 346.708 259.851 346.708 259.851C347.58 260.133 348.109 261.181 347.87 262.168C347.648 263.175 346.743 263.759 345.871 263.477Z" fill="#83BAA0"/>
<path d="M367.585 213.197C366.235 210.256 359.521 206.932 353.372 209.249C354.875 204.192 353.799 193.355 348.811 191.562C348.811 191.562 354.585 192.569 361.059 200.184C367.533 207.818 367.585 213.197 367.585 213.197Z" fill="#CBEDE1" stroke="#0B5243" stroke-width="0.75" stroke-linecap="round" stroke-linejoin="round"/>
<path d="M277.301 276.37C277.028 276.37 276.755 276.33 276.498 276.249L274.841 275.786C273.936 275.544 273.167 274.879 272.672 273.953C272.176 273.026 272.023 271.918 272.245 270.85L272.638 268.896C273.082 266.701 274.961 265.311 276.823 265.835L278.48 266.298C280.342 266.822 281.521 269.037 281.077 271.233L280.684 273.187C280.479 274.255 279.915 275.161 279.129 275.746C278.565 276.148 277.95 276.37 277.301 276.37ZM276.037 267.345C275.063 267.345 274.192 268.131 273.97 269.279L273.577 271.233C273.304 272.583 274.021 273.933 275.166 274.255L276.823 274.718C277.968 275.041 279.112 274.194 279.385 272.845L279.778 270.891C280.052 269.541 279.334 268.191 278.19 267.869L276.533 267.406C276.362 267.366 276.208 267.345 276.037 267.345Z" fill="#CBEDE1"/>
<path d="M336.699 303.203C330.378 301.933 290.712 290.854 287.962 289.988C285.211 289.101 284.545 288.94 282.991 288.396C282.119 288.114 281.59 287.067 281.829 286.08C282.051 285.073 282.956 284.488 283.828 284.77C283.828 284.77 284.989 285.133 288.799 286.362C301.013 290.27 337.536 299.577 337.536 299.577C338.407 299.859 338.937 300.906 338.698 301.893C338.475 302.9 337.57 303.485 336.699 303.203Z" fill="#83BAA0"/>
<path d="M274.705 289.383C274.431 289.383 274.158 289.342 273.902 289.262L272.245 288.799C271.339 288.557 270.571 287.892 270.075 286.965C269.58 286.039 269.426 284.931 269.648 283.863L270.041 281.909C270.246 280.842 270.81 279.935 271.596 279.351C272.381 278.767 273.321 278.585 274.226 278.847L275.883 279.311C277.745 279.834 278.924 282.05 278.48 284.246L278.087 286.2C277.882 287.268 277.318 288.174 276.533 288.758C275.969 289.161 275.354 289.383 274.705 289.383ZM273.441 280.358C273.048 280.358 272.672 280.479 272.33 280.741C271.852 281.083 271.51 281.647 271.373 282.292L270.981 284.246C270.707 285.596 271.425 286.945 272.569 287.268L274.226 287.731C275.371 288.053 276.515 287.207 276.789 285.857L277.182 283.903C277.455 282.554 276.737 281.204 275.593 280.882L273.936 280.418C273.765 280.378 273.611 280.358 273.441 280.358Z" fill="#CBEDE1"/>
<path d="M309.11 309.487C302.789 308.218 288.303 304.148 285.553 303.262C282.802 302.376 282.136 302.215 280.581 301.671C279.71 301.389 279.181 300.341 279.42 299.354C279.642 298.347 280.547 297.763 281.419 298.045C281.419 298.045 282.58 298.407 286.39 299.636C298.604 303.544 309.947 305.861 309.947 305.861C310.818 306.143 311.348 307.19 311.108 308.177C310.886 309.185 309.981 309.769 309.11 309.487Z" fill="#83BAA0"/>
<path d="M272.296 302.658C272.04 302.658 271.766 302.618 271.493 302.557L269.836 302.094C267.974 301.57 266.795 299.354 267.239 297.159L267.632 295.205C267.837 294.137 268.401 293.23 269.187 292.646C269.972 292.062 270.912 291.881 271.817 292.143L273.474 292.606C274.38 292.848 275.149 293.512 275.644 294.439C276.139 295.366 276.293 296.474 276.071 297.541L275.678 299.495C275.302 301.389 273.867 302.658 272.279 302.658H272.296ZM271.8 300.986C272.928 301.308 274.089 300.462 274.363 299.113L274.756 297.159C275.029 295.809 274.312 294.459 273.167 294.137L271.51 293.674C270.365 293.351 269.221 294.197 268.948 295.547L268.555 297.501C268.281 298.851 268.999 300.2 270.143 300.523L271.8 300.986Z" fill="#CBEDE1"/>
<path d="M204.153 289.484C197.969 259.046 192.81 210.881 195.646 179.234C195.646 179.234 180.545 181.007 167.682 184.149C174.327 220.288 188.693 254.997 204.17 289.484H204.153Z" fill="#0B5243"/>
<path d="M189.018 322.541C201.966 316.639 216.777 311.824 216.777 311.824C201.232 270.83 189.035 224.418 180.545 172.022C180.545 172.022 163.12 176.494 150.855 183.948L96.1387 212.391L134.011 353.805C134.011 353.805 177.487 327.799 189.001 322.541H189.018Z" fill="#83BAA0" stroke="#0B5243" stroke-width="0.75" stroke-miterlimit="10"/>
<path d="M191.068 324.636C151.06 348.628 114.571 366.476 114.571 366.476C110.556 339.1 81.5841 261.342 64.1426 221.919L111.035 195.027L156.373 169C179.878 219.845 200.292 273.429 202.24 286.502C204.204 299.576 202.496 317.062 191.068 324.636Z" fill="white" stroke="#0B5243" stroke-width="0.75" stroke-linejoin="round"/>
<path d="M191.068 324.636C194.006 319.923 195.851 313.799 189.223 296.837C194.228 295.548 199.489 290.713 202.24 286.503C204.358 301.551 202.411 316.377 191.068 324.636Z" fill="#CBEDE1" stroke="#0B5243" stroke-width="0.75" stroke-linecap="round" stroke-linejoin="round"/>
<path d="M140.741 255.118L99.3328 278.868C94.4984 264.123 88.0582 247.403 79.9609 229.233L120.908 205.744C120.908 205.744 136.163 239.949 140.741 255.118Z" fill="#CBEDE1"/>
<path d="M191.205 285.516C181.741 292.828 164.521 301.853 164.521 301.853C159.875 287.268 155.211 272.805 150.069 260.214C150.069 260.214 162.523 254.111 176.855 244.663C182.407 257.374 188.728 275.443 191.205 285.496V285.516Z" fill="#CBEDE1"/>
<path d="M150.103 198.774C147.797 200.325 135.839 207.537 133.96 208.262C131.756 209.169 129.45 208.605 128.528 206.369C127.605 204.133 128.254 201.514 130.612 200.164C132.969 198.814 141.647 193.839 146.755 190.676C149.044 189.206 151.265 190.334 152.187 192.57C153.11 194.806 152.409 197.223 150.103 198.774Z" fill="#0B5243"/>
<path d="M122.394 283.239C120.31 284.569 109.599 290.713 107.942 291.337C105.978 292.123 103.996 291.68 103.262 289.867C102.544 288.034 103.21 285.858 105.311 284.71C107.413 283.562 115.185 279.311 119.763 276.612C121.813 275.363 123.71 276.269 124.444 278.082C125.162 279.916 124.461 281.93 122.394 283.239Z" fill="#0B5243"/>
<path d="M159.567 206.892C154.767 210.498 142.638 217.79 140.366 219.099C138.094 220.409 137.565 220.751 136.266 221.456C135.549 221.859 134.626 221.416 134.234 220.429C133.824 219.462 134.097 218.314 134.814 217.911C134.814 217.911 135.771 217.367 138.914 215.554C148.993 209.773 158.115 203.346 158.115 203.346C158.833 202.944 159.755 203.387 160.148 204.374C160.558 205.341 160.285 206.489 159.567 206.892Z" fill="#83BAA0"/>
<path d="M163.633 217.327C158.833 220.933 146.687 228.225 144.432 229.535C142.177 230.844 141.63 231.186 140.332 231.891C139.615 232.294 138.692 231.851 138.299 230.884C137.906 229.917 138.163 228.789 138.88 228.366C138.88 228.366 139.837 227.822 142.98 226.009C153.059 220.228 162.181 213.802 162.181 213.802C162.898 213.399 163.821 213.842 164.214 214.809C164.607 215.776 164.35 216.904 163.633 217.327Z" fill="#83BAA0"/>
<path d="M150.086 282.937C145.217 286.361 117.014 302.215 114.725 303.424C112.436 304.632 111.889 304.975 110.574 305.599C109.839 305.982 108.934 305.458 108.541 304.411C108.148 303.383 108.421 302.215 109.156 301.852C109.156 301.852 110.129 301.349 113.307 299.677C123.488 294.318 148.668 279.19 148.668 279.19C149.403 278.807 150.308 279.331 150.701 280.379C151.094 281.406 150.821 282.574 150.086 282.937Z" fill="#83BAA0"/>
<path d="M154.425 295.185C149.556 298.609 121.353 314.463 119.064 315.672C116.775 316.88 116.228 317.223 114.912 317.847C114.178 318.23 113.273 317.706 112.88 316.659C112.487 315.631 112.76 314.463 113.495 314.101C113.495 314.101 114.468 313.597 117.646 311.925C127.827 306.567 153.007 291.438 153.007 291.438C153.742 291.055 154.647 291.579 155.04 292.627C155.433 293.654 155.16 294.822 154.425 295.185Z" fill="#83BAA0"/>
<path d="M159.106 309.145C150.838 314.342 130.373 325.442 126.563 327.456C122.754 329.471 121.849 329.994 119.679 331.082C118.466 331.707 117.168 331.384 116.775 330.357C116.382 329.33 117.048 327.96 118.261 327.335C118.261 327.335 119.867 326.489 125.146 323.709C142.075 314.826 157.688 305.398 157.688 305.398C158.901 304.774 160.199 305.096 160.592 306.123C160.985 307.151 160.319 308.52 159.106 309.145Z" fill="#83BAA0"/>
<path d="M162.488 322.36C154.22 327.557 133.755 338.656 129.945 340.671C126.136 342.685 125.23 343.209 123.061 344.297C121.848 344.921 120.55 344.599 120.157 343.572C119.764 342.544 120.43 341.174 121.643 340.55C121.643 340.55 123.249 339.704 128.527 336.924C145.456 328.04 161.07 318.613 161.07 318.613C162.283 317.988 163.581 318.311 163.974 319.338C164.367 320.365 163.701 321.735 162.488 322.36Z" fill="#83BAA0"/>
<path d="M156.508 236.061C151.469 239.607 147.352 241.742 144.755 243.112C144.038 243.515 143.132 243.071 142.74 242.125C142.347 241.178 142.62 240.05 143.337 239.647C147.745 237.27 151.862 234.893 155.09 232.596C155.808 232.194 156.713 232.637 157.106 233.583C157.499 234.53 157.226 235.658 156.508 236.061Z" fill="#83BAA0"/>
<path d="M131.551 244.784C129.331 239.425 120.106 229.031 114.281 232.375C108.934 235.437 109.514 248.913 109.514 248.913C109.514 248.913 105.5 244.683 102.083 246.637C97.6078 249.195 98.6498 259.288 100.102 262.833L131.534 244.804L131.551 244.784Z" fill="#0CC79F"/>
<path d="M99.9999 242.346C102.123 242.346 103.844 240.317 103.844 237.813C103.844 235.31 102.123 233.281 99.9999 233.281C97.8771 233.281 96.1562 235.31 96.1562 237.813C96.1562 240.317 97.8771 242.346 99.9999 242.346Z" fill="#FDD500"/>
<path d="M186.234 275.464C184.594 271.475 177.744 263.78 173.422 266.258C169.458 268.534 169.885 278.526 169.885 278.526C169.885 278.526 166.913 275.383 164.385 276.833C161.071 278.747 161.839 286.221 162.916 288.839L186.234 275.464Z" fill="#0CC79F"/>
<path d="M163.394 272.966C164.969 272.966 166.247 271.459 166.247 269.601C166.247 267.743 164.969 266.237 163.394 266.237C161.818 266.237 160.541 267.743 160.541 269.601C160.541 271.459 161.818 272.966 163.394 272.966Z" fill="#FDD500"/>
<path d="M141.947 452.463L171.316 357.917C172.447 354.286 170.497 350.496 167.278 350.075L161.706 349.345C156.577 371.671 149.961 403.9 143.042 438.182L141.975 452.122L141.93 452.461L141.947 452.463Z" fill="#0B5243"/>
<path d="M142.845 440.736L158.934 322.753L27.2227 305.504L13.0564 422.622L142.845 440.736Z" fill="white" stroke="#0B5243" stroke-width="0.75" stroke-linecap="round" stroke-linejoin="round"/>
<path d="M142.885 440.173C151.297 396.72 160.448 353.426 166.961 326.709L158.56 325.609C152.97 363.031 148.042 402.369 142.885 440.173Z" fill="#83BAA0" stroke="#0B5243" stroke-width="0.75" stroke-linecap="round" stroke-linejoin="round"/>
<path d="M6.03477 434.664L141.946 452.463L150.471 340.803C150.721 337.443 148.648 334.591 145.793 334.42L116.721 332.503C110.145 332.068 103.597 334.969 98.7253 340.467L94.7007 345.019L19.234 336.639C15.4802 336.229 12.0724 339.622 11.7823 344.074L6.01521 434.682L6.03477 434.664Z" fill="#FDD500"/>
<path d="M6.01455 434.56L141.35 452.283L149.846 341.107C150.093 337.767 148.018 334.935 145.183 334.747L116.232 332.825C109.673 332.392 103.161 335.278 98.3257 340.76L94.3206 345.294L19.1757 336.956C15.4389 336.548 12.0507 339.924 11.7632 344.356L6.03149 434.562L6.01455 434.56Z" stroke="#0B5243" stroke-width="0.75" stroke-linecap="round" stroke-linejoin="round"/>
<path d="M452.127 434.559L454.068 335.575C454.145 331.773 451.218 328.674 448.01 329.163L442.454 330.011C443.73 352.883 446.331 385.681 449.211 420.536L452.059 434.223L452.11 434.561L452.127 434.559Z" fill="#0B5243"/>
<path d="M449.715 423.047L432.402 305.236L301.068 325.268L320.004 441.71L449.715 423.047Z" fill="white" stroke="#0B5243" stroke-width="0.75" stroke-linecap="round" stroke-linejoin="round"/>
<path d="M449.612 422.491C445.62 378.413 442.379 334.281 441.213 306.807L432.836 308.084C437.865 345.586 444.062 384.743 449.612 422.491Z" fill="#83BAA0" stroke="#0B5243" stroke-width="0.75" stroke-linecap="round" stroke-linejoin="round"/>
<path d="M316.605 455.229L452.11 434.561L429.271 324.93C428.578 321.633 425.794 319.469 423.005 320.099L394.545 326.335C388.107 327.744 382.623 332.351 379.47 338.985L376.869 344.477L302.046 357.397C298.326 358.046 295.995 362.253 296.954 366.61L316.591 455.252L316.605 455.229Z" fill="#FDD500"/>
<path d="M316.573 455.132L451.504 434.552L428.772 325.393C428.082 322.116 425.301 319.973 422.525 320.579L394.18 326.777C387.759 328.185 382.306 332.766 379.184 339.376L376.597 344.844L302.094 357.716C298.391 358.362 296.075 362.546 297.03 366.884L316.59 455.13L316.573 455.132Z" stroke="#0B5243" stroke-width="0.75" stroke-linecap="round" stroke-linejoin="round"/>
<path d="M194.888 402.058L194.888 417.452L242.823 416.114L242.823 428.307C251.584 424.749 262.07 416.886 268.509 409.314C261.307 402.293 252.757 396.237 242.975 391.078L242.975 403.617L194.888 402.058Z" fill="#0B5243" stroke="#0B5243" stroke-width="0.75" stroke-linecap="round" stroke-linejoin="round"/>
<path d="M194.888 399.299L194.888 414.693L242.823 413.355L242.823 425.549C251.584 421.99 262.07 414.128 268.509 406.555C261.307 399.534 252.757 393.478 242.975 388.32L242.975 400.858L194.888 399.299Z" fill="white" stroke="#0B5243" stroke-width="0.75" stroke-linecap="round" stroke-linejoin="round"/>
<path d="M269.367 374.894L269.367 358.708L218.965 360.115L218.965 347.294C209.753 351.036 198.728 359.303 191.958 367.265C199.53 374.647 208.52 381.014 218.805 386.439L218.805 373.255L269.367 374.894Z" fill="#0B5243" stroke="#0B5243" stroke-width="0.75" stroke-linecap="round" stroke-linejoin="round"/>
<path d="M269.367 371.78L269.367 355.594L218.965 357.001L218.965 344.18C209.753 347.922 198.728 356.189 191.958 364.151C199.53 371.533 208.52 377.9 218.805 383.325L218.805 370.141L269.367 371.78Z" fill="white" stroke="#0B5243" stroke-width="0.75" stroke-linecap="round" stroke-linejoin="round"/>
</g>
<defs>
<filter id="filter0_d_134_129" x="1.63965" y="168.625" width="456.43" height="294.882" filterUnits="userSpaceOnUse" color-interpolation-filters="sRGB">
<feFlood flood-opacity="0" result="BackgroundImageFix"/>
<feColorMatrix in="SourceAlpha" type="matrix" values="0 0 0 0 0 0 0 0 0 0 0 0 0 0 0 0 0 0 127 0" result="hardAlpha"/>
<feOffset dy="4"/>
<feGaussianBlur stdDeviation="2"/>
<feComposite in2="hardAlpha" operator="out"/>
<feColorMatrix type="matrix" values="0 0 0 0 0 0 0 0 0 0 0 0 0 0 0 0 0 0 0.25 0"/>
<feBlend mode="normal" in2="BackgroundImageFix" result="effect1_dropShadow_134_129"/>
<feBlend mode="normal" in="SourceGraphic" in2="effect1_dropShadow_134_129" result="shape"/>
</filter>
</defs>
</svg>
