<svg width="64" height="64" viewBox="0 0 64 64" fill="none" xmlns="http://www.w3.org/2000/svg">
<path d="M64 32C64 24.4706 61.345 17.1824 56.5021 11.4173C51.6591 5.65212 44.9384 1.77931 37.522 0.480038C30.1056 -0.819236 22.4685 0.538247 15.9541 4.31371C9.43977 8.08918 4.46532 14.0408 1.90575 21.1218C-0.653817 28.2027 -0.634554 35.9594 1.96015 43.0276C4.55485 50.0957 9.55881 56.0226 16.0918 59.7656C22.6249 63.5087 30.2686 64.8282 37.6784 63.4921C45.0883 62.1561 51.7897 58.2499 56.604 52.4608L50.453 47.3456C46.8423 51.6874 41.8162 54.617 36.2588 55.6191C30.7014 56.6212 24.9687 55.6315 20.0689 52.8242C15.1691 50.0169 11.4161 45.5718 9.47011 40.2707C7.52408 34.9696 7.50964 29.152 9.42931 23.8413C11.349 18.5306 15.0798 14.0669 19.9656 11.2353C24.8514 8.40369 30.5792 7.38557 36.1415 8.36003C41.7038 9.33448 46.7443 12.2391 50.3765 16.563C54.0088 20.8868 56 26.353 56 32H64Z" fill="#17A2B8"/>
</svg>
