<svg width="534" height="521" viewBox="0 0 534 521" fill="none" xmlns="http://www.w3.org/2000/svg">
<rect x="110.385" y="0.5" width="423.116" height="487.697" fill="#FBF8F6" stroke="#768CB2"/>
<rect y="24.0974" width="430.863" height="496.408" fill="#C6D9FF"/>
<path d="M107.818 108.921H444.366C454.495 108.921 462.706 117.143 462.706 127.26V354.495H89.4668V127.26C89.4668 117.131 97.6893 108.921 107.818 108.921Z" fill="#0B3052"/>
<path d="M103.209 108.921H439.757C449.886 108.921 458.097 117.143 458.097 127.26V354.495H84.8691V127.26C84.8691 117.131 93.0916 108.921 103.209 108.921Z" fill="#F0F0F0" stroke="#0B3052" stroke-width="0.75" stroke-linecap="round" stroke-linejoin="round"/>
<rect x="95.0811" y="117.833" width="354.397" height="226.907" rx="10" fill="white"/>
<path d="M313.054 127.19H118.05C111.178 127.19 105.607 133.119 105.607 140.432V267.17C105.607 274.483 111.178 280.411 118.05 280.411H313.054C319.926 280.411 325.497 274.483 325.497 267.17V140.432C325.497 133.119 319.926 127.19 313.054 127.19Z" fill="#F0F0F0"/>
<path d="M313.123 291.429H117.725C110.839 291.429 105.257 297.011 105.257 303.897V319.289C105.257 326.175 110.839 331.758 117.725 331.758H313.123C320.009 331.758 325.591 326.175 325.591 319.289V303.897C325.591 297.011 320.009 291.429 313.123 291.429Z" fill="#F0F0F0"/>
<path d="M458.834 373.993H57.0793C49.9095 373.993 43.7924 368.811 42.5994 361.747L41.9444 357.852C41.652 356.097 42.997 354.507 44.7749 354.507H471.127C472.905 354.507 474.261 356.109 473.957 357.852L473.302 361.747C472.109 368.811 465.992 373.993 458.822 373.993H458.834Z" fill="#0B3052"/>
<path d="M451.618 373.993H49.8752C42.7054 373.993 36.5883 368.811 35.3953 361.747L34.7403 357.852C34.4479 356.097 35.7929 354.507 37.5708 354.507H463.911C465.689 354.507 467.046 356.109 466.742 357.852L466.087 361.747C464.894 368.811 458.776 373.993 451.607 373.993H451.618Z" fill="#F0F0F0" stroke="#0B3052" stroke-width="0.75" stroke-linecap="round" stroke-linejoin="round"/>
<path d="M192.464 354.53H277.928V355.361C277.928 359.466 274.595 362.8 270.49 362.8H199.914C195.809 362.8 192.476 359.466 192.476 355.361V354.53H192.464Z" fill="#46D1FA" stroke="#0B3052" stroke-width="0.75" stroke-miterlimit="10"/>
<path d="M151 299.944H119.245C117.566 299.944 116.204 301.305 116.204 302.985V303.663C116.204 305.343 117.566 306.704 119.245 306.704H151C152.68 306.704 154.041 305.343 154.041 303.663V302.985C154.041 301.305 152.68 299.944 151 299.944Z" fill="#46D1FA"/>
<path d="M193.329 243.427H119.245C117.566 243.427 116.204 244.789 116.204 246.469V247.147C116.204 248.826 117.566 250.188 119.245 250.188H193.329C195.009 250.188 196.37 248.826 196.37 247.147V246.469C196.37 244.789 195.009 243.427 193.329 243.427Z" fill="#46D1FA"/>
<path d="M179.142 256.457H119.245C117.566 256.457 116.204 257.819 116.204 259.498V260.176C116.204 261.856 117.566 263.217 119.245 263.217H179.142C180.821 263.217 182.183 261.856 182.183 260.176V259.498C182.183 257.819 180.821 256.457 179.142 256.457Z" fill="#46D1FA"/>
<path d="M220.757 299.944H189.002C187.322 299.944 185.961 301.305 185.961 302.985V303.663C185.961 305.343 187.322 306.704 189.002 306.704H220.757C222.437 306.704 223.798 305.343 223.798 303.663V302.985C223.798 301.305 222.437 299.944 220.757 299.944Z" fill="#46D1FA"/>
<path d="M298.678 299.944H266.923C265.243 299.944 263.882 301.305 263.882 302.985V303.663C263.882 305.343 265.243 306.704 266.923 306.704H298.678C300.358 306.704 301.719 305.343 301.719 303.663V302.985C301.719 301.305 300.358 299.944 298.678 299.944Z" fill="#46D1FA"/>
<path d="M175.727 298.131V325.067" stroke="#0B3052" stroke-width="0.75" stroke-linecap="round" stroke-linejoin="round"/>
<path d="M252.758 298.131V325.067" stroke="#0B3052" stroke-width="0.75" stroke-linecap="round" stroke-linejoin="round"/>
<path d="M428.796 126.02H347.349C340.448 126.02 334.854 131.829 334.854 138.995V208.955C334.854 216.121 340.448 221.93 347.349 221.93H428.796C435.697 221.93 441.29 216.121 441.29 208.955V138.995C441.29 131.829 435.697 126.02 428.796 126.02Z" fill="#F0F0F0"/>
<path d="M427.626 232.456H346.179C339.278 232.456 333.685 238.139 333.685 245.15V318.011C333.685 325.022 339.278 330.705 346.179 330.705H427.626C434.527 330.705 440.12 325.022 440.12 318.011V245.15C440.12 238.139 434.527 232.456 427.626 232.456Z" fill="#F0F0F0"/>
<path d="M134.101 312.611H121.071C118.442 312.611 116.311 314.742 116.311 317.371V318.436C116.311 321.065 118.442 323.196 121.071 323.196H134.101C136.73 323.196 138.861 321.065 138.861 318.436V317.371C138.861 314.742 136.73 312.611 134.101 312.611Z" fill="#73D0ED"/>
<path d="M203.751 312.611H190.721C188.092 312.611 185.961 314.742 185.961 317.371V318.436C185.961 321.065 188.092 323.196 190.721 323.196H203.751C206.38 323.196 208.511 321.065 208.511 318.436V317.371C208.511 314.742 206.38 312.611 203.751 312.611Z" fill="#73D0ED"/>
<path d="M281.672 312.611H268.642C266.013 312.611 263.882 314.742 263.882 317.371V318.436C263.882 321.065 266.013 323.196 268.642 323.196H281.672C284.301 323.196 286.432 321.065 286.432 318.436V317.371C286.432 314.742 284.301 312.611 281.672 312.611Z" fill="#73D0ED"/>
<path d="M308.97 255.229H280.233C278.295 255.229 276.724 256.8 276.724 258.738V263.486C276.724 265.424 278.295 266.995 280.233 266.995H308.97C310.908 266.995 312.479 265.424 312.479 263.486V258.738C312.479 256.8 310.908 255.229 308.97 255.229Z" fill="#0B3052"/>
<path d="M357.943 163.343H353.651C351.823 163.343 350.341 164.825 350.341 166.653V201.134C350.341 202.962 351.823 204.444 353.651 204.444H357.943C359.771 204.444 361.253 202.962 361.253 201.134V166.653C361.253 164.825 359.771 163.343 357.943 163.343Z" fill="#73D0ED"/>
<path d="M423.056 156.513H418.763C416.935 156.513 415.453 157.995 415.453 159.823V201.134C415.453 202.962 416.935 204.444 418.763 204.444H423.056C424.884 204.444 426.366 202.962 426.366 201.134V159.823C426.366 157.995 424.884 156.513 423.056 156.513Z" fill="#73D0ED"/>
<path d="M380.446 171.659H376.154C374.326 171.659 372.844 173.141 372.844 174.969V201.134C372.844 202.962 374.326 204.444 376.154 204.444H380.446C382.274 204.444 383.756 202.962 383.756 201.134V174.969C383.756 173.141 382.274 171.659 380.446 171.659Z" fill="#73D0ED"/>
<path d="M402.248 142.629H397.956C396.127 142.629 394.646 144.111 394.646 145.939V201.134C394.646 202.962 396.127 204.444 397.956 204.444H402.248C404.076 204.444 405.558 202.962 405.558 201.134V145.939C405.558 144.111 404.076 142.629 402.248 142.629Z" fill="#73D0ED"/>
<path d="M121.07 212.187C121.07 212.187 141.831 181.075 155.902 181.075C170.873 181.075 180.324 195.543 193.716 195.543C209.283 195.543 217.307 168.992 235.273 168.992C253.238 168.992 262.139 184.221 278.303 184.221C294.467 184.221 306.491 156.255 306.491 156.255" stroke="#0B3052" stroke-width="0.75" stroke-linecap="round" stroke-linejoin="round"/>
<path d="M122.567 215.649C125.074 215.649 127.106 213.617 127.106 211.111C127.106 208.604 125.074 206.573 122.567 206.573C120.061 206.573 118.029 208.604 118.029 211.111C118.029 213.617 120.061 215.649 122.567 215.649Z" fill="#46D1FA"/>
<path d="M156.288 185.73C158.795 185.73 160.826 183.698 160.826 181.192C160.826 178.685 158.795 176.654 156.288 176.654C153.782 176.654 151.75 178.685 151.75 181.192C151.75 183.698 153.782 185.73 156.288 185.73Z" fill="#46D1FA"/>
<path d="M193.844 199.415C196.35 199.415 198.382 197.383 198.382 194.876C198.382 192.37 196.35 190.338 193.844 190.338C191.337 190.338 189.306 192.37 189.306 194.876C189.306 197.383 191.337 199.415 193.844 199.415Z" fill="#46D1FA"/>
<path d="M234.746 173.589C237.253 173.589 239.284 171.557 239.284 169.051C239.284 166.544 237.253 164.513 234.746 164.513C232.24 164.513 230.208 166.544 230.208 169.051C230.208 171.557 232.24 173.589 234.746 173.589Z" fill="#46D1FA"/>
<path d="M276.724 188.759C279.23 188.759 281.262 186.727 281.262 184.221C281.262 181.715 279.23 179.683 276.724 179.683C274.217 179.683 272.186 181.715 272.186 184.221C272.186 186.727 274.217 188.759 276.724 188.759Z" fill="#46D1FA"/>
<path d="M306.491 160.793C308.998 160.793 311.029 158.762 311.029 156.255C311.029 153.749 308.998 151.717 306.491 151.717C303.985 151.717 301.953 153.749 301.953 156.255C301.953 158.762 303.985 160.793 306.491 160.793Z" fill="#46D1FA"/>
<path d="M382.739 285.873V253.861C372.774 253.861 363.815 258.504 357.943 265.639C357.943 265.639 357.92 265.662 357.908 265.674C357.896 265.697 357.873 265.709 357.861 265.721C353.405 271.23 350.727 278.224 350.727 285.862C350.727 293.043 353.089 299.675 357.089 305.008C362.926 312.81 372.236 317.851 382.728 317.851C393.219 317.851 402.249 312.95 408.097 305.348L382.728 285.85L382.739 285.873Z" fill="#73D0ED"/>
<path d="M387.746 246.819V282.224L415.817 303.792C420.414 297.815 423.151 290.341 423.151 282.224C423.151 262.668 407.302 246.819 387.746 246.819Z" fill="#0B3052"/>
<g clip-path="url(#clip0_134_431)">
<path d="M144.092 99.5613C125.527 94.6454 100.456 85.1896 100.456 85.1896H96.0514C89.4294 87.7728 70.7009 95.8696 56.7533 99.5613C56.7533 117.133 52.1844 149.491 54.6423 166.08C57.2256 183.517 87.9643 188.018 96.0514 195.382H100.456C109.199 190.467 143.331 185.493 146.203 166.08C148.661 149.482 144.092 117.124 144.092 99.5613Z" fill="#0B3052" stroke="#0B3052" stroke-width="0.75" stroke-miterlimit="10"/>
<path d="M139.688 99.5613C121.123 94.6454 96.0523 85.1896 96.0523 85.1896C96.0523 85.1896 70.9427 94.6454 52.3587 99.5613C52.3587 117.133 47.7898 149.491 50.2478 166.08C53.1202 185.493 87.3001 190.467 96.0523 195.382C104.795 190.467 138.926 185.493 141.799 166.08C144.257 149.482 139.688 117.124 139.688 99.5613Z" fill="#F0F0F0" stroke="#0B3052" stroke-width="0.75" stroke-linecap="round" stroke-linejoin="round"/>
<path d="M131.369 106.646C116.351 102.675 96.0706 95.0212 96.0706 95.0212C96.0706 95.0212 75.7612 102.675 60.7244 106.646C60.7244 120.854 57.0327 147.033 59.0183 160.451C61.3413 176.153 88.9859 180.172 96.0706 184.153C103.146 180.182 130.752 176.162 133.065 160.451C135.051 147.033 131.359 120.854 131.359 106.646H131.369Z" fill="#2F6599"/>
<path d="M96.7646 110.482C96.7646 110.482 96.8514 110.482 96.89 110.482C96.9285 110.482 96.9767 110.482 97.0153 110.482H96.7646Z" fill="#0B3052" stroke="#0B3052" stroke-width="0.75" stroke-miterlimit="10"/>
<path d="M96.8905 110.482C86.7599 110.55 79.0391 118.328 79.0391 127.418V136.652H114.337V127.418C114.337 118.338 106.79 110.55 96.8905 110.482ZM108.843 135.524H84.6971V128.391C84.6971 122.203 89.9408 116.902 96.8326 116.815C96.8326 116.815 96.8905 116.815 96.9194 116.815C96.9483 116.815 96.9772 116.815 97.0061 116.815C103.734 116.911 108.852 122.213 108.852 128.401V135.534L108.843 135.524Z" fill="#0B3052" stroke="#0B3052" stroke-width="0.75" stroke-miterlimit="10"/>
<path d="M110.134 134.56H83.9547C78.9719 134.56 74.9326 138.6 74.9326 143.583V159.959C74.9326 164.942 78.9719 168.981 83.9547 168.981H110.134C115.117 168.981 119.156 164.942 119.156 159.959V143.583C119.156 138.6 115.117 134.56 110.134 134.56Z" fill="#0B3052" stroke="#0B3052" stroke-width="0.75" stroke-miterlimit="10"/>
<path d="M84.6875 151.776L88.0226 147.92C90.8757 149.52 93.459 151.467 95.5699 154.031C98.7411 148.566 102.5 144.026 106.77 140.286L111.86 143.852C106.645 146.705 99.2038 155.352 95.9844 160.393C92.0228 156.499 88.2154 153.405 84.6971 151.776H84.6875Z" fill="#73D0ED"/>
<path d="M94.79 110.482C94.79 110.482 94.8768 110.482 94.9153 110.482C94.9539 110.482 95.0021 110.482 95.0407 110.482H94.79Z" fill="#46D1FA" stroke="#0B3052" stroke-width="0.75" stroke-miterlimit="10"/>
<path d="M94.9051 110.482C84.7745 110.55 77.0537 118.328 77.0537 127.418V136.652H112.352V127.418C112.352 118.338 104.804 110.55 94.9051 110.482ZM106.857 135.524H82.7118V128.391C82.7118 122.203 87.9554 116.902 94.8473 116.815C94.8473 116.815 94.9051 116.815 94.934 116.815C94.963 116.815 94.9919 116.815 95.0208 116.815C101.749 116.911 106.867 122.213 106.867 128.401V135.534L106.857 135.524Z" fill="#46D1FA" stroke="#0B3052" stroke-width="0.75" stroke-miterlimit="10"/>
<path d="M108.159 134.56H81.9791C76.9964 134.56 72.957 138.6 72.957 143.583V159.959C72.957 164.942 76.9964 168.981 81.9791 168.981H108.159C113.141 168.981 117.181 164.942 117.181 159.959V143.583C117.181 138.6 113.141 134.56 108.159 134.56Z" fill="#F0F0F0" stroke="#0B3052" stroke-width="0.75" stroke-miterlimit="10"/>
<path d="M82.7119 152.585L86.047 148.73C88.9001 150.33 91.4834 152.277 93.5943 154.841C96.7656 149.375 100.525 144.836 104.795 141.096L109.884 144.662C104.67 147.515 97.2282 156.161 94.0088 161.203C90.0472 157.308 86.2398 154.214 82.7216 152.585H82.7119Z" fill="#46D1FA"/>
</g>
<path d="M210.473 393.54L192.993 389.359L128.833 393.21C126.803 393.33 126.443 396.169 128.383 396.799L210.523 423.259L273.963 411.49C275.453 411.21 275.503 409.1 274.033 408.75" fill="#0B3052"/>
<path d="M297.313 161.4C298.293 159.09 297.733 154.43 294.043 152.46C291.723 151.22 289.293 151.27 286.703 152.32C286.363 151.92 285.543 150.2 283.903 149.17C280.783 147.2 276.733 147.72 274.583 150.72C274.423 150.94 274.283 151.18 274.153 151.41C272.083 151.12 269.923 151.95 268.613 153.78C266.753 156.39 267.353 160.01 269.953 161.88C270.503 162.27 271.093 162.55 271.703 162.73C269.273 162.9 266.933 164.11 265.403 166.24C262.693 170.03 263.563 175.31 267.353 178.02C270.763 180.46 275.363 179.99 278.233 177.12C278.843 178.64 279.883 180.02 281.313 181.05C281.553 181.22 281.793 181.38 282.043 181.52C280.823 182 279.713 182.83 278.893 183.98C276.613 187.17 277.393 187.56 277.853 191.45C282.723 201.98 294.673 198.32 295.433 192.4C302.703 192.4 306.423 180.98 302.603 175.95C306.193 172.36 305.343 162.34 297.283 161.42L297.313 161.4ZM274.753 163.06C274.543 163 274.333 162.94 274.123 162.89C274.363 162.86 274.603 162.82 274.843 162.75C274.813 162.85 274.783 162.95 274.753 163.06Z" fill="#BF8113"/>
<path d="M265.833 157.59L267.493 156.98C267.493 156.98 273.483 157.78 279.523 167.06C285.563 176.34 282.323 182.89 282.323 182.89L280.683 183.57L265.833 157.6V157.59Z" fill="white" stroke="#73D0ED" stroke-width="0.75" stroke-linecap="round" stroke-linejoin="round"/>
<path d="M282.343 369.21L259.583 374.93C259.583 374.93 264.623 380.39 265.653 388.2C266.673 396.01 264.713 400.88 264.713 400.88L288.083 396.37L289.173 393.66L210.813 394.75L215.003 362.86C213.763 355.95 212.813 348.55 212.093 340.72C212.093 340.72 200.413 370.33 193.553 381.59C186.693 392.85 171.833 367.2 168.693 359.22C166.173 352.82 174.033 328.57 176.903 320.36C180.263 310.78 195.813 279.59 200.163 273.33C204.513 267.07 231.483 256.5 231.483 256.5C239.323 272.16 255.733 272.29 283.103 249.29C283.103 249.29 317.193 260.86 322.963 264.94C328.743 269.01 333.163 274.69 336.183 281.73C339.213 288.77 357.673 352.22 359.983 361.17C362.303 370.11 359.593 381.91 355.733 385.78C351.873 389.64 316.053 398.49 296.793 398.49C288.443 398.49 288.073 396.36 288.073 396.36" fill="#768CB2"/>
<path d="M282.343 369.21L259.583 374.93C259.583 374.93 264.623 380.39 265.653 388.2C266.673 396.01 264.713 400.88 264.713 400.88L288.083 396.37L289.173 393.66L210.813 394.75L215.003 362.86C213.763 355.95 212.813 348.55 212.093 340.72C212.093 340.72 200.413 370.33 193.553 381.59C186.693 392.85 171.833 367.2 168.693 359.22C166.173 352.82 174.033 328.57 176.903 320.36C180.263 310.78 195.813 279.59 200.163 273.33C204.513 267.07 231.483 256.5 231.483 256.5C239.323 272.16 255.733 272.29 283.103 249.29C283.103 249.29 317.193 260.86 322.963 264.94C328.743 269.01 333.163 274.69 336.183 281.73C339.213 288.77 357.673 352.22 359.983 361.17C362.303 370.11 359.593 381.91 355.733 385.78C351.873 389.64 316.053 398.49 296.793 398.49C288.443 398.49 288.073 396.36 288.073 396.36" stroke="#73D0ED" stroke-width="0.75" stroke-linecap="round" stroke-linejoin="round"/>
<path d="M239.333 248.56C239.333 248.56 239.903 251.68 239.903 254.35C239.903 254.35 239.293 263.23 247.543 264.46C262.923 267.49 271.873 246.33 270.933 243.76C268.093 234.52 268.803 218.96 268.803 218.96L266.323 217.29C262.783 231.61 254.423 243.02 239.323 248.55L239.333 248.56Z" fill="#FFDDC5" stroke="#73D0ED" stroke-width="0.75" stroke-linecap="round" stroke-linejoin="round"/>
<path d="M215.953 182.18C217.613 175.6 240.753 158.15 259.753 176.15C267.123 182.69 267.953 200.23 267.953 200.23C267.953 200.23 268.003 216.34 267.593 221.6C267.183 226.86 267.093 226.73 264.733 231.88C262.363 237.03 247.563 243.55 240.473 245.7C233.383 247.85 227.523 246.61 226.433 244.95C225.343 243.29 219.813 233.71 219.813 233.71C219.813 233.71 214.093 221.03 214.093 215.23C214.093 210.94 215.353 208.79 215.353 207.23C215.353 205.67 212.573 202.53 212.073 198.65C211.573 191.49 215.943 182.19 215.943 182.19" fill="#FFDDC5"/>
<path d="M215.953 182.18C217.613 175.6 240.753 158.15 259.753 176.15C267.123 182.69 267.953 200.23 267.953 200.23C267.953 200.23 268.003 216.34 267.593 221.6C267.183 226.86 267.093 226.73 264.733 231.88C262.363 237.03 247.563 243.55 240.473 245.7C233.383 247.85 227.523 246.61 226.433 244.95C225.343 243.29 219.813 233.71 219.813 233.71C219.813 233.71 214.093 221.03 214.093 215.23C214.093 210.94 215.353 208.79 215.353 207.23C215.353 205.67 212.573 202.53 212.073 198.65C211.573 191.49 215.943 182.19 215.943 182.19" stroke="#73D0ED" stroke-width="0.75" stroke-miterlimit="10" stroke-linecap="round"/>
<path d="M234.463 207.04C234.463 207.04 235.003 205.19 237.193 204.41C239.383 203.63 241.703 204.49 243.063 204.41C244.423 204.33 245.993 204.19 245.993 204.19C245.993 204.19 243.473 208.46 240.233 208.46C236.993 208.46 234.473 207.03 234.473 207.03L234.463 207.04Z" fill="white"/>
<path d="M216.143 207.84C216.143 207.84 216.653 210.86 218.553 210.83C220.453 210.8 221.113 210.52 221.713 209.79C222.313 209.06 223.103 207.06 223.103 207.06C223.103 207.06 221.033 206.22 219.183 206.54C217.333 206.86 216.143 207.84 216.143 207.84Z" fill="white"/>
<path d="M220.783 199.47C220.783 199.47 218.693 198.31 216.993 198.31C215.293 198.31 212.903 199.4 212.713 200.3C212.523 201.2 212.833 202.37 213.433 201.97C214.033 201.57 215.103 200.62 216.603 200.38C218.833 200.03 221.563 201.32 222.333 201.32C223.103 201.32 220.773 199.47 220.773 199.47H220.783Z" fill="#BF8113"/>
<path d="M228.043 197.68C229.043 196.68 236.773 194.51 240.453 194.51C244.133 194.51 249.993 196.4 249.993 197.68C249.993 198.96 244.703 197.05 240.453 197.05C236.203 197.05 230.543 199.95 229.443 200.29C228.343 200.63 227.043 198.69 228.043 197.69V197.68Z" fill="#BF8113"/>
<path d="M223.673 206.839C223.673 206.839 221.173 205.569 218.203 206.229C216.513 206.599 216.053 207.349 215.903 207.619C215.623 208.109 216.113 208.689 216.273 208.459C216.433 208.229 217.123 207.449 218.633 207.029C220.403 206.549 223.683 207.599 223.683 207.599V206.849L223.673 206.839Z" fill="#031001"/>
<path d="M215.983 205.59C215.803 205.41 216.703 204.8 218.973 204.47C221.243 204.14 223.543 205.24 224.063 206.14V206.54C222.813 205.29 220.903 204.77 219.033 204.97C217.163 205.17 216.153 205.77 215.973 205.59H215.983Z" fill="#031001"/>
<path d="M223.103 207.449C223.103 207.449 222.643 210.029 220.893 210.649C219.153 211.259 218.093 211.179 218.393 210.879C218.693 210.579 219.443 210.699 220.743 210.099C222.043 209.499 222.843 207.319 222.843 207.319L223.093 207.449H223.103Z" fill="#031001"/>
<path d="M218.863 206.54C218.863 206.54 218.423 207.27 218.583 208.24C218.743 209.21 219.993 210.36 220.723 210.36C221.453 210.36 222.323 209.05 222.323 209.05L223.103 207.06L218.863 206.54Z" fill="#031001"/>
<path d="M217.583 211.71C217.583 211.44 219.073 212.31 220.393 211.92C221.713 211.53 222.963 209.73 222.963 210.23C222.963 210.73 222.243 212.13 220.393 212.48C218.553 212.83 217.583 211.98 217.583 211.71Z" fill="#031001"/>
<path d="M233.403 207.76C233.233 207.39 234.533 206.79 234.583 206.36C234.633 205.93 235.133 204.59 236.433 204.07C239.043 203.02 241.583 203.92 243.783 203.92C245.983 203.92 248.433 203.14 248.613 203.63C248.793 204.12 245.883 204.58 243.783 204.79C241.683 205 238.313 204.46 236.913 205.01C235.513 205.57 235.303 206.62 235.053 206.88C234.803 207.14 233.583 208.12 233.413 207.75L233.403 207.76Z" fill="#031001"/>
<path d="M235.043 206.89C235.043 206.89 238.053 208.2 240.153 208.15C242.253 208.11 244.423 205.83 244.623 206.03C244.843 206.25 242.763 208.5 240.113 208.7C237.463 208.9 234.463 207.36 234.463 207.36L235.043 206.88V206.89Z" fill="#73D0ED"/>
<path d="M233.653 205.77C233.893 205.77 233.693 204.1 236.163 203.1C238.633 202.1 244.283 202.8 244.643 202.43C245.003 202.06 238.633 201.49 235.733 202.63C232.833 203.77 233.413 205.77 233.653 205.77Z" fill="#031001"/>
<path d="M236.483 205.169C236.743 206.369 237.413 207.349 238.563 208.069L241.063 208.409L242.303 207.579C242.623 206.409 242.473 205.589 242.303 204.779L238.603 204.199L236.843 204.469L236.483 205.169Z" fill="#031001"/>
<path d="M234.743 208.749C234.513 208.549 234.813 208.249 235.163 208.499C235.513 208.749 237.203 210.119 239.363 210.209C241.523 210.299 244.003 208.839 244.203 209.089C244.403 209.339 242.003 210.919 239.403 210.829C236.813 210.739 234.963 208.949 234.733 208.749H234.743Z" fill="#031001"/>
<path d="M216.903 180.94C216.903 180.94 221.933 182.89 225.153 179.94C229.013 181.42 239.143 182.66 250.733 177.81C251.873 184.09 258.033 190.11 260.863 190.73C255.683 207.28 265.993 211.36 267.563 206.03C267.563 206.03 266.823 201.5 268.483 198.77C270.143 196.04 270.303 196.23 270.303 196.23L268.723 217.45L268.793 226.49C272.873 231.37 288.003 198.32 280.863 186.3C285.243 172.02 271.513 160.19 267.493 160.19C268.243 155.8 258.243 148.65 249.423 151.74C245.023 150.02 235.043 149.18 225.153 157.73C217.583 159.25 213.613 164.35 212.653 171.5C206.223 177.93 208.033 192.33 212.153 195.4C212.463 192.54 213.553 186.74 216.903 180.95V180.94Z" fill="#BF8113"/>
<path d="M267.183 218.4C267.183 218.4 270.673 221.22 272.703 219.19C274.733 217.16 275.563 214.27 276.283 212.07C277.003 209.86 278.553 206.05 278.533 202.63C278.503 199.21 277.413 195.39 272.913 195.39C266.233 195.39 267.393 206.03 267.393 206.03" fill="#FFDDC5"/>
<path d="M267.183 218.4C267.183 218.4 270.673 221.22 272.703 219.19C274.733 217.16 275.563 214.27 276.283 212.07C277.003 209.86 278.553 206.05 278.533 202.63C278.503 199.21 277.413 195.39 272.913 195.39C266.233 195.39 267.393 206.03 267.393 206.03" stroke="#73D0ED" stroke-width="0.75" stroke-miterlimit="10" stroke-linecap="round"/>
<path d="M276.323 198.809C276.323 198.809 275.153 197.189 273.103 197.409C271.053 197.629 270.143 199.589 269.743 201.289C269.343 202.989 269.923 206.929 269.923 206.929C269.923 206.929 271.103 207.119 271.283 208.729C271.463 210.329 269.533 212.719 269.533 212.719" stroke="#031001" stroke-width="0.75" stroke-miterlimit="10" stroke-linecap="round"/>
<path d="M269.773 205.64C269.773 205.64 271.903 205.04 272.943 206.6C273.973 208.16 272.943 210.08 272.943 210.08" stroke="#031001" stroke-width="0.75" stroke-miterlimit="10" stroke-linecap="round"/>
<path d="M240.453 233.009C240.453 233.009 238.303 234.319 236.483 234.319C234.663 234.319 232.323 233.929 231.003 234.319C229.683 234.709 229.233 235.389 228.893 235.389C228.553 235.389 226.703 234.319 225.683 234.319C224.663 234.319 223.683 235.069 223.683 235.069C223.383 233.199 223.793 232.409 224.603 232.219C224.603 232.219 226.723 231.829 228.303 233.019C229.103 232.119 229.463 231.839 230.373 231.649C231.283 231.459 233.013 232.009 233.013 232.009C235.383 232.889 237.873 233.179 240.463 233.019L240.453 233.009Z" fill="#EDB095" stroke="#73D0ED" stroke-width="0.75" stroke-linecap="round" stroke-linejoin="round"/>
<path d="M223.673 235.06C223.673 235.06 224.653 234.31 225.673 234.31C226.693 234.31 228.553 235.38 228.883 235.38C229.213 235.38 229.673 234.7 230.993 234.31C232.313 233.92 234.653 234.31 236.473 234.31C238.293 234.31 240.443 233 240.443 233C240.443 233 235.043 238.41 229.333 238.41C225.213 238.41 223.663 235.06 223.663 235.06H223.673Z" fill="#EDB095" stroke="#73D0ED" stroke-width="0.75" stroke-linecap="round" stroke-linejoin="round"/>
<path d="M223.393 235.06C223.393 235.06 224.373 234.31 225.393 234.31C226.413 234.31 228.273 235.38 228.603 235.38C228.933 235.38 229.393 234.7 230.713 234.31C232.033 233.92 234.373 234.31 236.193 234.31C238.013 234.31 240.163 233 240.163 233" stroke="#031001" stroke-width="0.75" stroke-miterlimit="10" stroke-linecap="round"/>
<path d="M244.933 269.049C244.933 269.049 249.373 260.819 250.673 259.859C254.173 260.799 257.723 265.359 258.093 265.669C253.643 267.929 249.243 269.199 244.933 269.039V269.049Z" fill="#73D0ED"/>
<path d="M247.543 264.459C240.013 260.669 238.253 252.319 238.253 252.319C237.923 250.919 237.653 249.559 237.563 248.319C233.773 249.969 230.533 252.879 228.783 256.129C231.633 254.979 235.853 267.299 244.913 269.019L247.533 264.459H247.543Z" fill="#83BAA0"/>
<path d="M250.663 259.839C254.483 261.019 259.003 266.519 263.563 272.169C271.843 267.679 281.233 255.209 283.373 248.559C279.583 245.399 275.213 239.429 274.093 238.299C273.763 237.969 273.233 237.719 272.663 237.529C272.663 238.889 271.363 246.249 265.453 252.169C262.353 255.269 258.893 257.379 256.133 258.229C254.123 258.849 252.073 258.729 251.673 258.969C251.333 259.179 250.683 259.839 250.683 259.839H250.663Z" fill="#83BAA0"/>
<path d="M325.273 272.17C325.273 272.17 300.913 287.16 305.703 313.74C308.383 328.62 315.243 355.73 315.243 355.73" stroke="#73D0ED" stroke-width="0.75" stroke-linecap="round" stroke-linejoin="round"/>
<path d="M265.193 397.92C265.193 397.92 257.653 398.6 254.143 399.76C250.633 400.92 241.793 403.88 239.443 404.38C237.083 404.88 228.003 405.31 225.983 405.32C223.953 405.34 218.003 405.46 216.193 404.87C214.383 404.28 214.383 401.47 214.383 401.47C214.383 401.47 211.553 402.17 210.813 400.35C210.243 398.76 211.313 397.65 211.313 397.65C211.313 397.65 209.543 398.47 208.203 398.53C207.263 398.57 206.713 398.02 206.403 397.51C205.663 396.26 206.283 395.25 206.283 395.25L207.273 394.03C207.273 394.03 205.313 393.52 205.593 391.42C205.923 388.98 211.513 383.92 214.203 381.64C218.193 378.24 226.943 373.34 230.233 372.77C233.523 372.2 244.733 378.52 246.743 378.52C248.753 378.52 260.163 376.43 260.163 376.43C260.163 376.43 263.423 378.75 265.283 386.25C267.153 393.75 265.173 397.94 265.173 397.94L265.193 397.92Z" fill="#FFDDC5" stroke="#73D0ED" stroke-width="0.75" stroke-miterlimit="10" stroke-linecap="round"/>
<path d="M232.593 266.619C232.593 266.619 235.893 272.899 243.273 274.189C250.663 275.479 261.323 269.419 261.323 269.419" fill="#768CB2"/>
<path d="M232.593 266.619C232.593 266.619 235.893 272.899 243.273 274.189C250.663 275.479 261.323 269.419 261.323 269.419" stroke="#73D0ED" stroke-width="0.75" stroke-linecap="round" stroke-linejoin="round"/>
<path d="M202.223 284.93C203.643 302.28 205.843 318.34 211.203 329.23C212.323 346.52 213.853 356.86 216.013 368.5" stroke="#73D0ED" stroke-width="0.75" stroke-linecap="round" stroke-linejoin="round"/>
<path d="M288.083 396.37L264.713 400.88C264.713 400.88 266.683 396.01 265.653 388.2C264.633 380.39 259.583 374.93 259.583 374.93L282.343 369.21C282.343 369.21 289.693 374.28 290.453 381.66C291.213 389.03 288.083 396.37 288.083 396.37Z" fill="#83BAA0"/>
<path d="M270.973 243.88C271.933 241.92 272.713 238.4 272.653 237.53C271.553 237.15 269.563 237.17 269.563 237.17C269.883 239.44 270.383 241.92 270.973 243.88Z" fill="#73D0ED"/>
<path d="M239.333 247.75C239.333 247.75 239.713 251.41 239.813 252.34C239.913 253.27 239.903 255.05 239.903 255.05L240.113 257.03C238.833 255 237.983 252.1 237.573 248.33C238.153 248.04 238.733 247.79 239.333 247.75Z" fill="#D1B000"/>
<path d="M228.803 256.13C228.273 256.31 228.803 270.22 229.373 270.32C229.943 270.42 233.523 265.16 236.743 264.04C236.743 264.04 234.703 261.89 232.313 258.68C230.183 255.86 229.333 255.96 228.803 256.14V256.13Z" fill="#83BAA0"/>
<path d="M288.083 396.37C288.083 396.37 292.603 387.23 289.863 379.44C287.123 371.65 282.343 369.21 282.343 369.21C282.343 369.21 281.233 368.69 284.473 366.45C287.713 364.2 318.983 354.59 318.983 354.59C331.603 350.89 343.413 353.31 349.373 359.27" stroke="#73D0ED" stroke-width="0.75" stroke-linecap="round" stroke-linejoin="round"/>
<path d="M233.783 379.89C233.783 379.89 221.313 384.03 217.973 386.18C215.283 387.91 209.943 391.57 207.543 393.67" stroke="#73D0ED" stroke-width="0.75" stroke-linecap="round" stroke-linejoin="round"/>
<path d="M214.843 401.29C214.843 401.29 221.653 400.27 225.223 399.31C228.793 398.36 236.613 396.77 236.613 396.77" stroke="#73D0ED" stroke-width="0.75" stroke-linecap="round" stroke-linejoin="round"/>
<path d="M235.573 388.19C235.573 388.19 223.453 391.47 220.653 392.9C218.003 394.27 211.473 397.52 211.473 397.52" stroke="#73D0ED" stroke-width="0.75" stroke-linecap="round" stroke-linejoin="round"/>
<path d="M267.033 221.41C265.713 216.14 263.423 217.05 259.533 225.24C254.603 233.75 247.453 230.97 247.453 230.97C246.003 229.52 245.473 228.99 242.853 227.98C240.233 226.97 232.663 225.73 227.443 226.64C223.193 227.38 222.243 228.53 220.873 230.45C219.503 232.37 217.733 226.21 217.003 226.69C214.793 228.9 217.853 253.67 226.953 254.18C229.903 260.12 239.053 258.65 243.173 256.59C246.593 258.4 255.743 256.54 259.153 249.45C265.023 249.45 269.693 231.5 267.053 221.41H267.033ZM226.923 241.96C226.523 240.03 224.563 239.27 223.573 239.27C223.063 238.64 222.733 237.98 222.333 237.16C221.353 234.97 221.343 234.24 222.333 232.6C223.903 230.48 227.783 229.53 229.623 229.53C231.463 229.53 234.683 229.75 237.553 230.3C239.523 230.62 241.983 232.3 241.983 234.81C240.453 235.74 239.153 238.16 239.153 239.84C237.953 239.4 236.183 240.25 236.003 241.63C232.383 243.13 229.413 243.19 226.923 241.96Z" fill="#BF8113"/>
<path d="M224.593 203.25C224.593 205.82 223.093 209.41 222.223 212.75C221.353 216.09 220.053 221 220.473 223.09C220.893 225.18 222.303 226.2 223.933 226.2C225.563 226.2 227.253 225.31 228.873 224.79C230.493 224.27 232.723 225.76 234.163 225.05C235.093 224.59 235.663 221.78 233.843 219.96C232.023 218.14 229.293 218.15 229.293 218.15" stroke="#031001" stroke-width="0.75" stroke-miterlimit="10" stroke-linecap="round"/>
<path d="M195.183 352.409L210.353 422.469C210.433 422.819 210.093 423.119 209.753 423.009L122.343 394.849C120.293 394.189 118.703 392.559 118.103 390.489L100.103 329.119C99.563 327.279 101.233 325.539 103.093 326.009L190.993 348.089C193.093 348.619 194.713 350.289 195.173 352.409H195.183Z" fill="#2F6599"/>
<path d="M150.737 377.975C153.368 376.654 153.855 372.306 151.826 368.264C149.796 364.222 146.018 362.015 143.387 363.336C140.757 364.657 140.269 369.005 142.299 373.047C144.328 377.089 148.106 379.295 150.737 377.975Z" fill="#FDD500" stroke="#73D0ED" stroke-width="0.75" stroke-linecap="round" stroke-linejoin="round"/>
<path d="M344.493 387.692L360.247 383.925L418.07 387.394C419.899 387.503 420.224 390.062 418.475 390.63L344.448 414.476L288.044 404.268C286.242 403.817 286.242 401.564 288.044 401.113" fill="#0B3052"/>
<path d="M358.273 350.624L344.601 413.765C344.529 414.08 344.836 414.35 345.142 414.251L423.919 388.873C425.766 388.278 427.199 386.809 427.74 384.943L443.962 329.635C444.449 327.976 442.944 326.408 441.268 326.832L362.049 346.731C360.157 347.209 358.697 348.714 358.282 350.624H358.273Z" fill="#2F6599"/>
<path d="M405.941 369.232C407.77 365.589 407.33 361.671 404.96 360.481C402.589 359.29 399.184 361.279 397.355 364.922C395.526 368.565 395.965 372.483 398.336 373.673C400.707 374.864 404.111 372.875 405.941 369.232Z" fill="#FDD500"/>
<defs>
<clipPath id="clip0_134_431">
<rect width="98.1249" height="110.916" fill="white" transform="translate(49.1582 84.8232)"/>
</clipPath>
</defs>
</svg>
