<svg width="534" height="521" viewBox="0 0 534 521" fill="none" xmlns="http://www.w3.org/2000/svg">
<rect y="24.0974" width="430.863" height="496.408" fill="#768CB2"/>
<rect x="110.385" y="0.5" width="423.116" height="487.697" fill="#FBF8F6" stroke="#768CB2"/>
<path d="M107.818 108.921H444.366C454.495 108.921 462.706 117.143 462.706 127.26V354.495H89.4668V127.26C89.4668 117.131 97.6893 108.921 107.818 108.921Z" fill="#0B3052"/>
<path d="M103.209 108.921H439.757C449.886 108.921 458.097 117.143 458.097 127.26V354.495H84.8691V127.26C84.8691 117.131 93.0916 108.921 103.209 108.921Z" fill="#E7F8FE" stroke="#0B3052" stroke-width="0.75" stroke-linecap="round" stroke-linejoin="round"/>
<rect x="95.0811" y="117.833" width="354.397" height="226.907" rx="10" fill="white"/>
<path d="M313.054 127.19H118.05C111.178 127.19 105.607 133.119 105.607 140.432V267.17C105.607 274.483 111.178 280.411 118.05 280.411H313.054C319.926 280.411 325.497 274.483 325.497 267.17V140.432C325.497 133.119 319.926 127.19 313.054 127.19Z" fill="#E7F8FE"/>
<path d="M313.123 291.429H117.725C110.839 291.429 105.257 297.011 105.257 303.897V319.289C105.257 326.175 110.839 331.758 117.725 331.758H313.123C320.009 331.758 325.591 326.175 325.591 319.289V303.897C325.591 297.011 320.009 291.429 313.123 291.429Z" fill="#E7F8FE"/>
<path d="M458.834 373.993H57.0793C49.9095 373.993 43.7924 368.811 42.5994 361.747L41.9444 357.852C41.652 356.097 42.997 354.507 44.7749 354.507H471.127C472.905 354.507 474.261 356.109 473.957 357.852L473.302 361.747C472.109 368.811 465.992 373.993 458.822 373.993H458.834Z" fill="#0B3052"/>
<path d="M451.618 373.993H49.8752C42.7054 373.993 36.5883 368.811 35.3953 361.747L34.7403 357.852C34.4479 356.097 35.7929 354.507 37.5708 354.507H463.911C465.689 354.507 467.046 356.109 466.742 357.852L466.087 361.747C464.894 368.811 458.776 373.993 451.607 373.993H451.618Z" fill="#E7F8FE" stroke="#0B3052" stroke-width="0.75" stroke-linecap="round" stroke-linejoin="round"/>
<path d="M192.464 354.53H277.928V355.361C277.928 359.466 274.595 362.8 270.49 362.8H199.914C195.809 362.8 192.476 359.466 192.476 355.361V354.53H192.464Z" fill="#46D1FA" stroke="#0B3052" stroke-width="0.75" stroke-miterlimit="10"/>
<path d="M151 299.944H119.245C117.566 299.944 116.204 301.305 116.204 302.985V303.663C116.204 305.343 117.566 306.704 119.245 306.704H151C152.68 306.704 154.041 305.343 154.041 303.663V302.985C154.041 301.305 152.68 299.944 151 299.944Z" fill="#46D1FA"/>
<path d="M193.329 243.427H119.245C117.566 243.427 116.204 244.789 116.204 246.469V247.147C116.204 248.826 117.566 250.188 119.245 250.188H193.329C195.009 250.188 196.37 248.826 196.37 247.147V246.469C196.37 244.789 195.009 243.427 193.329 243.427Z" fill="#46D1FA"/>
<path d="M179.142 256.457H119.245C117.566 256.457 116.204 257.819 116.204 259.498V260.176C116.204 261.856 117.566 263.217 119.245 263.217H179.142C180.821 263.217 182.183 261.856 182.183 260.176V259.498C182.183 257.819 180.821 256.457 179.142 256.457Z" fill="#46D1FA"/>
<path d="M220.757 299.944H189.002C187.322 299.944 185.961 301.305 185.961 302.985V303.663C185.961 305.343 187.322 306.704 189.002 306.704H220.757C222.437 306.704 223.798 305.343 223.798 303.663V302.985C223.798 301.305 222.437 299.944 220.757 299.944Z" fill="#46D1FA"/>
<path d="M298.678 299.944H266.923C265.243 299.944 263.882 301.305 263.882 302.985V303.663C263.882 305.343 265.243 306.704 266.923 306.704H298.678C300.358 306.704 301.719 305.343 301.719 303.663V302.985C301.719 301.305 300.358 299.944 298.678 299.944Z" fill="#46D1FA"/>
<path d="M175.727 298.131V325.067" stroke="#0B3052" stroke-width="0.75" stroke-linecap="round" stroke-linejoin="round"/>
<path d="M252.758 298.131V325.067" stroke="#0B3052" stroke-width="0.75" stroke-linecap="round" stroke-linejoin="round"/>
<path d="M428.796 126.02H347.349C340.448 126.02 334.854 131.829 334.854 138.995V208.955C334.854 216.121 340.448 221.93 347.349 221.93H428.796C435.697 221.93 441.29 216.121 441.29 208.955V138.995C441.29 131.829 435.697 126.02 428.796 126.02Z" fill="#E7F8FE"/>
<path d="M427.626 232.456H346.179C339.278 232.456 333.685 238.139 333.685 245.15V318.011C333.685 325.022 339.278 330.705 346.179 330.705H427.626C434.527 330.705 440.12 325.022 440.12 318.011V245.15C440.12 238.139 434.527 232.456 427.626 232.456Z" fill="#E7F8FE"/>
<path d="M134.101 312.611H121.071C118.442 312.611 116.311 314.742 116.311 317.371V318.436C116.311 321.065 118.442 323.196 121.071 323.196H134.101C136.73 323.196 138.861 321.065 138.861 318.436V317.371C138.861 314.742 136.73 312.611 134.101 312.611Z" fill="#73D0ED"/>
<path d="M203.751 312.611H190.721C188.092 312.611 185.961 314.742 185.961 317.371V318.436C185.961 321.065 188.092 323.196 190.721 323.196H203.751C206.38 323.196 208.511 321.065 208.511 318.436V317.371C208.511 314.742 206.38 312.611 203.751 312.611Z" fill="#73D0ED"/>
<path d="M281.672 312.611H268.642C266.013 312.611 263.882 314.742 263.882 317.371V318.436C263.882 321.065 266.013 323.196 268.642 323.196H281.672C284.301 323.196 286.432 321.065 286.432 318.436V317.371C286.432 314.742 284.301 312.611 281.672 312.611Z" fill="#73D0ED"/>
<path d="M308.97 255.229H280.233C278.295 255.229 276.724 256.8 276.724 258.738V263.486C276.724 265.424 278.295 266.995 280.233 266.995H308.97C310.908 266.995 312.479 265.424 312.479 263.486V258.738C312.479 256.8 310.908 255.229 308.97 255.229Z" fill="#0B3052"/>
<path d="M357.943 163.343H353.651C351.823 163.343 350.341 164.825 350.341 166.653V201.134C350.341 202.962 351.823 204.444 353.651 204.444H357.943C359.771 204.444 361.253 202.962 361.253 201.134V166.653C361.253 164.825 359.771 163.343 357.943 163.343Z" fill="#73D0ED"/>
<path d="M423.056 156.513H418.763C416.935 156.513 415.453 157.995 415.453 159.823V201.134C415.453 202.962 416.935 204.444 418.763 204.444H423.056C424.884 204.444 426.366 202.962 426.366 201.134V159.823C426.366 157.995 424.884 156.513 423.056 156.513Z" fill="#73D0ED"/>
<path d="M380.446 171.659H376.154C374.326 171.659 372.844 173.141 372.844 174.969V201.134C372.844 202.962 374.326 204.444 376.154 204.444H380.446C382.274 204.444 383.756 202.962 383.756 201.134V174.969C383.756 173.141 382.274 171.659 380.446 171.659Z" fill="#73D0ED"/>
<path d="M402.248 142.629H397.956C396.127 142.629 394.646 144.111 394.646 145.939V201.134C394.646 202.962 396.127 204.444 397.956 204.444H402.248C404.076 204.444 405.558 202.962 405.558 201.134V145.939C405.558 144.111 404.076 142.629 402.248 142.629Z" fill="#73D0ED"/>
<path d="M121.07 212.187C121.07 212.187 141.831 181.075 155.902 181.075C170.873 181.075 180.324 195.543 193.716 195.543C209.283 195.543 217.307 168.992 235.273 168.992C253.238 168.992 262.139 184.221 278.303 184.221C294.467 184.221 306.491 156.255 306.491 156.255" stroke="#0B3052" stroke-width="0.75" stroke-linecap="round" stroke-linejoin="round"/>
<path d="M122.567 215.649C125.074 215.649 127.106 213.617 127.106 211.111C127.106 208.604 125.074 206.573 122.567 206.573C120.061 206.573 118.029 208.604 118.029 211.111C118.029 213.617 120.061 215.649 122.567 215.649Z" fill="#46D1FA"/>
<path d="M156.288 185.73C158.795 185.73 160.826 183.698 160.826 181.192C160.826 178.685 158.795 176.654 156.288 176.654C153.782 176.654 151.75 178.685 151.75 181.192C151.75 183.698 153.782 185.73 156.288 185.73Z" fill="#46D1FA"/>
<path d="M193.844 199.415C196.35 199.415 198.382 197.383 198.382 194.876C198.382 192.37 196.35 190.338 193.844 190.338C191.337 190.338 189.306 192.37 189.306 194.876C189.306 197.383 191.337 199.415 193.844 199.415Z" fill="#46D1FA"/>
<path d="M234.746 173.589C237.253 173.589 239.284 171.557 239.284 169.051C239.284 166.544 237.253 164.513 234.746 164.513C232.24 164.513 230.208 166.544 230.208 169.051C230.208 171.557 232.24 173.589 234.746 173.589Z" fill="#46D1FA"/>
<path d="M276.724 188.759C279.23 188.759 281.262 186.727 281.262 184.221C281.262 181.715 279.23 179.683 276.724 179.683C274.217 179.683 272.186 181.715 272.186 184.221C272.186 186.727 274.217 188.759 276.724 188.759Z" fill="#46D1FA"/>
<path d="M306.491 160.793C308.998 160.793 311.029 158.762 311.029 156.255C311.029 153.749 308.998 151.717 306.491 151.717C303.985 151.717 301.953 153.749 301.953 156.255C301.953 158.762 303.985 160.793 306.491 160.793Z" fill="#46D1FA"/>
<path d="M382.739 285.873V253.861C372.774 253.861 363.815 258.504 357.943 265.639C357.943 265.639 357.92 265.662 357.908 265.674C357.896 265.697 357.873 265.709 357.861 265.721C353.405 271.23 350.727 278.224 350.727 285.862C350.727 293.043 353.089 299.675 357.089 305.008C362.926 312.81 372.236 317.851 382.728 317.851C393.219 317.851 402.249 312.95 408.097 305.348L382.728 285.85L382.739 285.873Z" fill="#73D0ED"/>
<path d="M387.746 246.819V282.224L415.817 303.792C420.414 297.815 423.151 290.341 423.151 282.224C423.151 262.668 407.302 246.819 387.746 246.819Z" fill="#0B3052"/>
<path d="M344.493 387.692L360.247 383.925L418.07 387.395C419.899 387.503 420.224 390.062 418.475 390.63L344.448 414.477L288.044 404.268C286.242 403.817 286.242 401.564 288.044 401.113" fill="#768CB2"/>
<path d="M358.273 350.624L344.601 413.765C344.529 414.08 344.836 414.35 345.142 414.251L423.919 388.873C425.766 388.278 427.199 386.809 427.74 384.943L443.962 329.635C444.449 327.976 442.944 326.408 441.268 326.832L362.049 346.731C360.157 347.209 358.697 348.714 358.282 350.624H358.273Z" fill="#2F6599"/>
<path d="M405.941 369.232C407.77 365.589 407.33 361.671 404.96 360.481C402.589 359.29 399.184 361.279 397.355 364.922C395.526 368.565 395.965 372.483 398.336 373.674C400.707 374.864 404.111 372.876 405.941 369.232Z" fill="#FDD7DE"/>
<g clip-path="url(#clip0_134_366)">
<path d="M144.092 99.5613C125.527 94.6454 100.456 85.1896 100.456 85.1896H96.0514C89.4294 87.7728 70.7009 95.8696 56.7533 99.5613C56.7533 117.133 52.1844 149.491 54.6423 166.08C57.2256 183.517 87.9643 188.018 96.0514 195.382H100.456C109.199 190.467 143.331 185.493 146.203 166.08C148.661 149.482 144.092 117.124 144.092 99.5613Z" fill="#0B3052" stroke="#0B3052" stroke-width="0.75" stroke-miterlimit="10"/>
<path d="M139.688 99.5613C121.123 94.6454 96.0523 85.1896 96.0523 85.1896C96.0523 85.1896 70.9427 94.6454 52.3587 99.5613C52.3587 117.133 47.7898 149.491 50.2478 166.08C53.1202 185.493 87.3001 190.467 96.0523 195.382C104.795 190.467 138.926 185.493 141.799 166.08C144.257 149.482 139.688 117.124 139.688 99.5613Z" fill="#E7F8FE" stroke="#0B3052" stroke-width="0.75" stroke-linecap="round" stroke-linejoin="round"/>
<path d="M131.369 106.646C116.351 102.675 96.0706 95.0212 96.0706 95.0212C96.0706 95.0212 75.7612 102.675 60.7244 106.646C60.7244 120.854 57.0327 147.033 59.0183 160.451C61.3413 176.153 88.9859 180.172 96.0706 184.153C103.146 180.182 130.752 176.162 133.065 160.451C135.051 147.033 131.359 120.854 131.359 106.646H131.369Z" fill="#2F6599"/>
<path d="M96.7646 110.482C96.7646 110.482 96.8514 110.482 96.89 110.482C96.9285 110.482 96.9767 110.482 97.0153 110.482H96.7646Z" fill="#0B3052" stroke="#0B3052" stroke-width="0.75" stroke-miterlimit="10"/>
<path d="M96.8905 110.482C86.7599 110.55 79.0391 118.328 79.0391 127.418V136.652H114.337V127.418C114.337 118.338 106.79 110.55 96.8905 110.482ZM108.843 135.524H84.6971V128.391C84.6971 122.203 89.9408 116.902 96.8326 116.815C96.8326 116.815 96.8905 116.815 96.9194 116.815C96.9483 116.815 96.9772 116.815 97.0061 116.815C103.734 116.911 108.852 122.213 108.852 128.401V135.534L108.843 135.524Z" fill="#0B3052" stroke="#0B3052" stroke-width="0.75" stroke-miterlimit="10"/>
<path d="M110.134 134.56H83.9547C78.9719 134.56 74.9326 138.6 74.9326 143.583V159.959C74.9326 164.942 78.9719 168.981 83.9547 168.981H110.134C115.117 168.981 119.156 164.942 119.156 159.959V143.583C119.156 138.6 115.117 134.56 110.134 134.56Z" fill="#0B3052" stroke="#0B3052" stroke-width="0.75" stroke-miterlimit="10"/>
<path d="M84.6875 151.776L88.0226 147.92C90.8757 149.52 93.459 151.467 95.5699 154.031C98.7411 148.566 102.5 144.026 106.77 140.286L111.86 143.852C106.645 146.705 99.2038 155.352 95.9844 160.393C92.0228 156.499 88.2154 153.405 84.6971 151.776H84.6875Z" fill="#73D0ED"/>
<path d="M94.79 110.482C94.79 110.482 94.8768 110.482 94.9153 110.482C94.9539 110.482 95.0021 110.482 95.0407 110.482H94.79Z" fill="#46D1FA" stroke="#0B3052" stroke-width="0.75" stroke-miterlimit="10"/>
<path d="M94.9051 110.482C84.7745 110.55 77.0537 118.328 77.0537 127.418V136.652H112.352V127.418C112.352 118.338 104.804 110.55 94.9051 110.482ZM106.857 135.524H82.7118V128.391C82.7118 122.203 87.9554 116.902 94.8473 116.815C94.8473 116.815 94.9051 116.815 94.934 116.815C94.963 116.815 94.9919 116.815 95.0208 116.815C101.749 116.911 106.867 122.213 106.867 128.401V135.534L106.857 135.524Z" fill="#46D1FA" stroke="#0B3052" stroke-width="0.75" stroke-miterlimit="10"/>
<path d="M108.159 134.56H81.9791C76.9964 134.56 72.957 138.6 72.957 143.583V159.959C72.957 164.942 76.9964 168.981 81.9791 168.981H108.159C113.141 168.981 117.181 164.942 117.181 159.959V143.583C117.181 138.6 113.141 134.56 108.159 134.56Z" fill="#E7F8FE" stroke="#0B3052" stroke-width="0.75" stroke-miterlimit="10"/>
<path d="M82.7119 152.585L86.047 148.73C88.9001 150.33 91.4834 152.277 93.5943 154.841C96.7656 149.375 100.525 144.836 104.795 141.096L109.884 144.662C104.67 147.515 97.2282 156.161 94.0088 161.203C90.0472 157.308 86.2398 154.214 82.7216 152.585H82.7119Z" fill="#46D1FA"/>
</g>
<path d="M241.242 392.961C241.242 392.961 238.387 395.558 229.402 395.558C220.418 395.558 217.562 392.961 217.562 392.961H241.252H241.242Z" fill="#E7F8FE" stroke="#0B3052" stroke-width="0.75" stroke-linecap="round" stroke-linejoin="round"/>
<path d="M229.393 393.598C245.74 393.598 258.992 390.168 258.992 385.937C258.992 381.706 245.74 378.276 229.393 378.276C213.045 378.276 199.793 381.706 199.793 385.937C199.793 390.168 213.045 393.598 229.393 393.598Z" fill="#E7F8FE" stroke="#0B3052" stroke-width="0.75" stroke-linecap="round" stroke-linejoin="round"/>
<path d="M229.392 392.046C236.327 392.046 241.948 390.59 241.948 388.793C241.948 386.996 236.327 385.539 229.392 385.539C222.458 385.539 216.836 386.996 216.836 388.793C216.836 390.59 222.458 392.046 229.392 392.046Z" fill="#0B3052"/>
<path d="M206.425 246.946C206.623 246.905 206.791 246.87 206.927 246.841C206.968 246.944 207.018 247.064 207.078 247.2C207.29 247.682 207.622 248.366 208.108 249.183C209.079 250.818 210.663 252.99 213.126 255.159C218.06 259.504 226.475 263.8 240.427 263.8C249.778 263.8 258.174 261.528 264.227 259.261C267.255 258.127 269.701 256.993 271.391 256.141C272.236 255.715 272.893 255.359 273.34 255.11C273.516 255.011 273.66 254.929 273.769 254.865L294.124 266.706L294.174 266.747C294.227 266.792 294.306 266.859 294.408 266.946C294.612 267.12 294.905 267.372 295.263 267.687C295.979 268.317 296.954 269.197 297.988 270.193C300.076 272.205 302.338 274.631 303.26 276.441C303.713 277.337 304.27 279.022 304.873 281.335C305.473 283.637 306.109 286.524 306.727 289.798C307.964 296.345 309.129 304.422 309.794 312.422C310.457 320.408 310.335 334.83 309.704 348.18C309.389 354.852 308.948 361.246 308.416 366.423C307.882 371.627 307.262 375.536 306.61 377.285C304.006 384.268 299.175 389.268 291.48 390.409V390.407L290.92 390.475C289.001 390.709 286.709 390.07 284.294 388.873C281.889 387.68 279.42 385.963 277.168 384.122C274.918 382.282 272.897 380.329 271.389 378.675C270.635 377.847 270.014 377.099 269.558 376.481C269.089 375.847 268.83 375.395 268.752 375.149L268.641 374.801H268.275H179.894H179.657L179.507 374.985C175.392 380.023 171.693 383.934 168.464 386.574C165.215 389.23 162.526 390.529 160.42 390.501H160.413C155.21 390.501 150.748 388.351 147.22 383.91C143.678 379.451 141.067 372.665 139.656 363.399C139.363 361.292 139.536 357.617 140.05 353.04C140.564 348.478 141.41 343.068 142.441 337.521C144.504 326.419 147.297 314.81 149.611 308.371C150.246 306.606 150.962 304.509 151.757 302.185C153.891 295.943 156.585 288.063 159.743 280.581C161.909 275.451 164.285 270.529 166.836 266.473C169.394 262.406 172.096 259.26 174.893 257.623C180.646 254.259 188.745 251.542 195.436 249.662C198.776 248.724 201.754 247.997 203.897 247.505C204.968 247.259 205.831 247.072 206.425 246.946Z" fill="#FFF4BC" stroke="#1193B2"/>
<path d="M253.689 281.468C243.183 287.557 232.736 278.771 232.736 278.771C232.736 278.771 224.736 273.817 219.603 266.951C219.603 266.951 209.504 254.783 207.235 246.247C207.235 244.157 217.026 237.919 219.423 240.327C221.821 242.725 231.96 254.614 231.96 254.614C231.96 254.614 243.69 266.275 252.306 266.275C260.923 266.275 253.669 281.468 253.669 281.468H253.689Z" fill="#45D1FA"/>
<path d="M218.061 239.789L231.482 238.287C231.482 238.287 225.732 244.635 222.767 244.008C218.717 239.481 218.061 239.789 218.061 239.789Z" fill="#031001"/>
<path d="M231.821 254.604L264.674 247.679L265.689 242.028C265.689 242.028 266.723 242.028 256.296 238.287C245.869 234.546 237.094 224.358 237.094 224.358L235.134 231.83C235.134 231.83 231.303 242.128 222.767 244.008L231.821 254.604Z" fill="#FFC5A9"/>
<path d="M277.11 162.95C277.11 162.95 285.786 159.447 290.452 163.238C295.616 167.437 302.641 179.565 300.999 199.275C299.447 217.861 307.118 232.148 301.476 245.461C298.263 253.042 288.443 258.683 283.597 262.195C277.389 266.703 264.166 250.346 264.166 250.346V161.955L277.12 162.95H277.11Z" fill="#BF8113"/>
<path d="M282.722 170.501C282.722 170.501 283.13 164.343 258.505 169.487C233.88 174.62 234.965 205.046 235.97 219.005C236.975 232.964 248.705 236.815 248.705 236.815C248.705 236.815 269.33 246.416 275.807 245.391C282.284 244.366 285.03 240.187 287.518 235.173C290.005 230.158 292.313 223.273 292.642 217.801C292.96 212.319 291.438 208.399 291.846 206.678C292.254 204.956 294.522 200.827 294.771 196.42C295.02 192.012 293.089 182.192 289.766 177.247C286.443 172.302 282.742 170.501 282.742 170.501H282.722Z" fill="#FFDDC5"/>
<path d="M294.761 196.42C294.761 196.42 293.796 195.057 290.921 195.674C288.045 196.291 285.568 198.748 285.021 199.385C284.473 200.022 284.374 200.788 285.428 200.449C286.483 200.111 288.543 197.494 291.11 196.977C293.677 196.47 294.413 197.405 294.612 197.166C294.811 196.927 295.06 196.649 294.771 196.41L294.761 196.42Z" fill="#BF8113"/>
<path d="M257.381 197.952C257.321 197.176 265.321 196.201 270.634 196.987C274.435 197.544 276.017 200.031 276.017 200.031C276.574 200.917 276.325 202.31 275.668 201.733C275.012 201.156 275.24 199.972 271.539 198.549C267.848 197.126 257.431 198.718 257.381 197.942V197.952Z" fill="#BF8113"/>
<path d="M283.239 202.23C283.239 202.23 284.284 205.235 285.189 209.832C286.095 214.428 287.498 223.562 285.548 224.666C283.607 225.771 281.508 224.527 279.896 224.368C278.285 224.209 276.902 224.895 275.817 223.96C274.733 223.025 275.429 220.905 276.683 220.03C277.926 219.144 279.886 219.274 279.886 219.274" stroke="black" stroke-width="0.75" stroke-miterlimit="10" stroke-linecap="round"/>
<path d="M273.449 206.618C273.668 206.369 273.767 202.608 270.146 201.265C266.524 199.932 260.942 201.205 260.873 201.494C260.803 201.782 266.673 200.748 269.618 201.962C273.111 203.364 273.23 206.857 273.449 206.608V206.618Z" fill="#031001"/>
<path d="M285.568 206.17C285.329 206.19 285.389 204.061 286.981 202.559C288.792 200.847 292.085 201.365 292.115 201.703C292.144 202.041 289.329 201.345 287.478 202.947C285.986 204.23 285.807 206.16 285.568 206.17Z" fill="#031001"/>
<path d="M272.941 208.289C272.941 208.289 271.439 209.056 267.648 208.727C263.857 208.399 259.52 203.583 259.52 203.583C259.52 203.583 266.753 202.827 269.459 203.922C272.165 205.016 272.941 208.289 272.941 208.289Z" fill="white"/>
<path d="M272.693 208.697C273.25 208.658 273.738 205.315 270.156 203.544C266.584 201.773 258.883 202.897 258.276 203.593C257.669 204.29 264.674 203.812 267.738 204.578C271.439 205.414 272.126 208.737 272.683 208.697H272.693Z" fill="#031001"/>
<path d="M270.832 205.454C270.832 205.454 270.712 209.275 267.369 208.727C264.026 208.18 265.021 203.812 265.021 203.812L270.832 205.464V205.454Z" fill="#031001"/>
<path d="M285.796 208.081C285.796 208.081 287.159 204.519 289.437 203.663C291.726 202.807 292.482 203.285 292.482 203.285C292.482 203.285 290.89 208.011 288.651 208.469C286.413 208.926 285.796 208.081 285.796 208.081Z" fill="white"/>
<path d="M285.687 207.812C285.627 207.006 286.95 204.449 288.88 203.265C290.074 202.539 291.527 202.489 292.273 203.016C293.368 203.782 291.278 203.116 289.079 204.618C286.881 206.12 285.756 209.006 285.677 207.812H285.687Z" fill="#031001"/>
<path d="M290.324 203.434C290.324 203.434 291.03 207.593 288.97 208.379C287.468 208.946 286.692 207.812 286.513 207.394C286.334 206.976 286.443 206.419 286.443 206.419L290.324 203.434Z" fill="#031001"/>
<path d="M271.549 230.646C274.643 230.427 277.817 229.711 278.951 229.621C280.085 229.532 281.329 230.537 281.329 230.537C281.329 230.537 282.414 229.651 283.14 229.81C284.105 229.94 284.881 231.92 284.971 231.691C284.971 231.691 283.2 234.666 280.643 235.074C276.553 235.591 272.285 231.233 271.549 230.636V230.646Z" fill="#C42C2C"/>
<path d="M285.438 231.93C284.701 231.989 284.284 232.069 283.378 232.148C282.473 232.228 282.105 232.735 281.498 232.785C280.891 232.835 280.244 232.188 279.09 231.87C277.936 231.551 277.12 231.86 274.682 231.681C272.245 231.502 271.101 230.656 271.101 230.656" stroke="black" stroke-width="0.75" stroke-linecap="round" stroke-linejoin="round"/>
<path d="M285.906 174.68C286.881 173.705 286.473 161.149 278.255 154.204C270.822 147.926 250.326 144.414 233.88 156.373C217.434 168.332 199.525 202.141 202.201 228.139C204.101 246.595 213.941 250.346 219.742 256.256C223.712 260.285 235.134 264.683 241.641 254.664C260.445 225.691 235.571 223.055 243.571 200.698C247.58 196.688 251.978 194.848 258.256 188.58C265.191 181.645 270.544 175.844 279.548 174.531C282.712 174.063 284.941 175.655 285.916 174.67L285.906 174.68Z" fill="#CE9013"/>
<path d="M243.571 200.479C243.571 200.479 237.552 192.629 231.891 198.28C226.637 203.534 232.279 216.11 235.98 218.995C239.681 221.881 244.278 218.339 244.278 218.339L243.571 200.479Z" fill="#FFDDC5"/>
<path d="M283.647 173.088C283.647 173.088 278.115 161.955 264.156 161.955" stroke="#BE8115" stroke-miterlimit="10" stroke-linecap="round"/>
<path d="M281.309 173.088C262.962 164.213 244.267 170.302 231.224 193.544" stroke="#BE8115" stroke-miterlimit="10" stroke-linecap="round"/>
<path d="M262.027 205.712L241.73 198.021" stroke="black" stroke-width="0.75" stroke-linecap="round" stroke-linejoin="round"/>
<path d="M276.848 201.575L266.878 201.141C264.331 201.03 262.176 203.006 262.065 205.553L261.856 210.364C261.745 212.911 263.72 215.066 266.267 215.177L276.237 215.61C278.785 215.721 280.939 213.746 281.05 211.199L281.259 206.388C281.37 203.84 279.395 201.686 276.848 201.575Z" stroke="black" stroke-width="0.75" stroke-linecap="round" stroke-linejoin="round"/>
<path d="M297.359 201.381L291.753 201.138C289.326 201.032 287.274 202.914 287.168 205.34L286.94 210.588C286.835 213.015 288.716 215.067 291.143 215.173L296.749 215.417C299.175 215.522 301.228 213.641 301.333 211.214L301.562 205.966C301.667 203.539 299.786 201.487 297.359 201.381Z" stroke="black" stroke-width="0.75" stroke-linecap="round" stroke-linejoin="round"/>
<path d="M281.329 206.707C281.329 206.707 285.02 204.24 287.09 206.707" stroke="black" stroke-width="0.75" stroke-linecap="round" stroke-linejoin="round"/>
<path d="M301.467 206.797L292.691 204.18" stroke="black" stroke-width="0.75" stroke-linecap="round" stroke-linejoin="round"/>
<path d="M235.134 198.668C235.134 198.668 241.014 199.275 241.73 208.011C241.73 208.011 238.218 209.105 239.979 212.806" stroke="#EDB095" stroke-width="0.75" stroke-linecap="round" stroke-linejoin="round"/>
<path d="M254.346 294.939C254.545 288.154 254.545 282.493 253.689 279.418C252.326 278.503 250.953 276.463 249.58 273.349C249.58 273.349 246.038 259.599 251.65 253.987C257.261 248.376 266.345 244.237 273.021 247.053C279.707 249.868 276.315 264.335 276.315 264.335C274.772 270.344 270.932 272.314 270.126 274.881C268.673 281.527 271.768 293.188 271.768 293.188C271.768 293.188 270.365 294.83 264.176 295.865C257.978 296.899 254.356 294.929 254.356 294.929L254.346 294.939Z" fill="#FFC5A9"/>
<path d="M272.593 259.549C272.593 259.549 269.409 263.817 265.121 262.016C260.833 260.216 260.226 254.495 260.226 254.495C259.778 252.027 259.878 249.739 260.614 247.172C261.35 244.605 264.156 242.764 267.658 243.52L267.957 246.694C267.957 246.694 265.549 245.968 264.484 247.56C263.46 249.092 263.828 253.201 263.927 253.997C263.927 253.997 264.176 258.584 267.021 258.853C269.867 259.121 271.001 257.34 271.001 257.34L272.603 259.549H272.593Z" fill="#F9F7EB" stroke="#C7C1A7" stroke-width="0.75" stroke-linecap="round" stroke-linejoin="round"/>
<path d="M277.896 311.028C277.896 311.028 276.384 293.059 272.931 292.004C272.931 292.004 270.464 294.77 263.42 295.447C256.376 296.123 253.739 294.074 253.739 294.074C251.311 297.666 254.117 315.545 254.117 315.545L254.157 315.833C262.087 318.5 270.006 316.997 277.936 311.306L277.896 311.018V311.028Z" fill="#45D1FA"/>
<path d="M277.937 311.594C277.937 311.594 280.722 313.545 282.235 317.823C283.757 322.101 298.771 355.163 298.771 355.163" stroke="#1193B2" stroke-width="0.75" stroke-linecap="round" stroke-linejoin="round"/>
<path d="M268.593 375.082C267.628 373.659 266.763 372.217 266.046 370.774C261.121 360.904 254.107 329.305 253.55 325.116C252.784 319.285 254.157 316.112 254.157 316.112" stroke="#1193B2" stroke-width="0.75" stroke-linecap="round" stroke-linejoin="round"/>
<path d="M221.105 305.854C221.105 305.854 221.513 309.296 219.722 314.967C218.489 318.868 197.475 354.148 179.994 375.221" stroke="#1193B2" stroke-width="0.75" stroke-linecap="round" stroke-linejoin="round"/>
<path d="M145.3 353.183C147.15 346.885 155.249 336.03 166.154 331.404C166.154 331.404 183.386 302.73 188.401 297.715C193.415 292.701 197.087 291.417 197.087 291.417" stroke="#1193B2" stroke-width="0.75" stroke-linecap="round" stroke-linejoin="round"/>
<path d="M226.478 288.273L233.263 277.468C237.482 277.329 243.551 275.528 250.356 273.07C252.684 274.214 256.276 275.08 257.4 275.08C258.525 275.08 260.087 271.598 260.087 271.598C262.445 270.483 262.614 268.643 263.181 267.319C264.823 265.837 265.131 263.031 264.116 262.016C263.42 261.32 253.192 258.435 253.192 256.415C253.192 254.694 266.047 254.116 266.703 252.952C267.36 251.788 266.663 248.097 264.813 247.669C262.962 247.241 251.351 247.878 249.6 247.669C247.849 247.46 247.162 246.654 243.69 247.669C240.218 248.684 225.741 257.887 222.07 264.205L210.568 278.363C210.568 278.363 212.339 282.642 217.215 285.457C222.09 288.273 226.468 288.273 226.468 288.273H226.478Z" fill="#FFDDC5"/>
<path d="M262.763 267.439C262.206 267.041 252.883 263.638 251.64 262.713" stroke="#EDB095" stroke-width="0.75" stroke-linecap="round" stroke-linejoin="round"/>
<path d="M259.609 271.538C259.609 271.538 254.276 269.628 250.376 267.727" stroke="#EDB095" stroke-width="0.75" stroke-linecap="round" stroke-linejoin="round"/>
<path d="M221.145 305.864C221.145 305.864 229.244 291.905 228.229 288.054C224.09 288.821 217.295 286.234 213.653 282.592C210.012 278.951 210.28 276.971 210.28 276.971C209.494 276.851 207.753 277.677 206.818 278.453C202.649 281.916 197.127 291.417 197.127 291.417C197.127 291.417 198.231 298.462 204.927 302.511C211.623 306.56 221.145 305.854 221.145 305.854V305.864Z" fill="#45D1FA"/>
<path d="M277.807 265.071C277.807 265.071 271.181 260.853 269.002 253.55C266.833 246.247 267.42 240.317 267.42 240.317C267.42 240.317 270.604 235.332 287.399 235.332C302.372 235.332 306.79 239.431 306.89 240.347C306.989 241.262 307.427 246.277 305.994 253.759C304.561 261.241 297.577 265.071 297.577 265.071C292.144 267.827 282.862 268.106 277.797 265.071H277.807Z" fill="#F9F7EB" stroke="#C7C1A7" stroke-width="0.75" stroke-linecap="round" stroke-linejoin="round"/>
<path d="M287.189 267.2C292.322 267.2 296.482 265.922 296.482 264.345C296.482 262.768 292.322 261.489 287.189 261.489C282.057 261.489 277.896 262.768 277.896 264.345C277.896 265.922 282.057 267.2 287.189 267.2Z" fill="#C7C1A7"/>
<defs>
<clipPath id="clip0_134_366">
<rect width="98.1249" height="110.916" fill="white" transform="translate(49.1582 84.8232)"/>
</clipPath>
</defs>
</svg>
