<svg width="21" height="21" viewBox="0 0 21 21" fill="none" xmlns="http://www.w3.org/2000/svg">
<path d="M20.346 2.54616C20.4686 2.66917 20.5375 2.83578 20.5375 3.00947C20.5375 3.18316 20.4686 3.34977 20.346 3.47278L18.9771 4.84303L16.3521 2.21803L17.721 0.847781C17.8441 0.724753 18.011 0.65564 18.185 0.65564C18.359 0.65564 18.5259 0.724753 18.6489 0.847781L20.346 2.54484V2.54616ZM18.0491 5.76966L15.4241 3.14466L6.48206 12.088C6.40983 12.1603 6.35545 12.2483 6.32325 12.3453L5.26669 15.5137C5.24753 15.5714 5.24481 15.6334 5.25883 15.6926C5.27286 15.7518 5.30307 15.806 5.34611 15.849C5.38914 15.892 5.44329 15.9222 5.50251 15.9363C5.56173 15.9503 5.62368 15.9476 5.68144 15.9284L8.84981 14.8718C8.94663 14.84 9.03471 14.7861 9.10706 14.7143L18.0491 5.77097V5.76966Z" fill="white"/>
<path fill-rule="evenodd" clip-rule="evenodd" d="M1.3125 17.7188C1.3125 18.2409 1.51992 18.7417 1.88913 19.1109C2.25835 19.4801 2.75911 19.6875 3.28125 19.6875H17.7188C18.2409 19.6875 18.7417 19.4801 19.1109 19.1109C19.4801 18.7417 19.6875 18.2409 19.6875 17.7188V9.84375C19.6875 9.6697 19.6184 9.50278 19.4953 9.37971C19.3722 9.25664 19.2053 9.1875 19.0312 9.1875C18.8572 9.1875 18.6903 9.25664 18.5672 9.37971C18.4441 9.50278 18.375 9.6697 18.375 9.84375V17.7188C18.375 17.8928 18.3059 18.0597 18.1828 18.1828C18.0597 18.3059 17.8928 18.375 17.7188 18.375H3.28125C3.1072 18.375 2.94028 18.3059 2.81721 18.1828C2.69414 18.0597 2.625 17.8928 2.625 17.7188V3.28125C2.625 3.1072 2.69414 2.94028 2.81721 2.81721C2.94028 2.69414 3.1072 2.625 3.28125 2.625H11.8125C11.9865 2.625 12.1535 2.55586 12.2765 2.43279C12.3996 2.30972 12.4688 2.1428 12.4688 1.96875C12.4688 1.7947 12.3996 1.62778 12.2765 1.50471C12.1535 1.38164 11.9865 1.3125 11.8125 1.3125H3.28125C2.75911 1.3125 2.25835 1.51992 1.88913 1.88913C1.51992 2.25835 1.3125 2.75911 1.3125 3.28125V17.7188Z" fill="white"/>
</svg>
