<svg width="126" height="141" viewBox="0 0 126 141" fill="none" xmlns="http://www.w3.org/2000/svg">
<path d="M13.42 61C3.73689 61 -2.67165 48.3563 1.09352 39.6682C4.22816 32.4341 11.6844 27.4489 19.7822 30.068C17.143 15.7083 34.0412 7.96847 44.1927 16.9275C46.2645 9.67538 57.2808 -2.31813 75.4311 0.39125C93.8155 3.13675 98.1122 19.8084 98.1122 25.6788C106.426 21.9398 117.896 25.7149 122.923 34.981C127.615 43.6329 124.695 58.101 116.489 60.991H13.42L13.42 61Z" fill="#C1C1C1"/>
<g clip-path="url(#clip0_154_187)">
<path d="M96.9482 140.72L105.315 99.5915C105.637 98.012 104.432 96.5343 102.82 96.5343H100.028C98.9423 106.148 97.7629 119.982 96.5664 134.69L96.9398 140.575V140.72H96.9482Z" fill="black"/>
<path d="M96.6261 135.769L96.9485 85.5708H30.957L31.534 135.302L96.6261 135.769Z" fill="white" stroke="black" stroke-width="0.75" stroke-linecap="round" stroke-linejoin="round"/>
<path d="M96.6172 135.531C97.9579 116.907 99.672 98.3092 101.157 86.7852H96.9481C96.6087 102.734 96.719 119.447 96.6172 135.531Z" fill="#C1C1C1" stroke="black" stroke-width="0.75" stroke-linecap="round" stroke-linejoin="round"/>
<path d="M28.8523 140.72H96.9397L93.9358 93.5791C93.8425 92.1609 92.6375 91.0824 91.2205 91.1673L76.7782 91.9571C73.5113 92.1354 70.4735 93.7065 68.4285 96.2712L66.7399 98.3942L29.0305 99.0227C27.1552 99.0566 25.6957 100.662 25.8399 102.538L28.8438 140.728L28.8523 140.72Z" fill="#C1C1C1"/>
<path d="M28.8444 140.677H96.6433L93.6564 93.7403C93.5631 92.3306 92.3581 91.2606 90.9496 91.337L76.5667 92.1183C73.3083 92.2966 70.2875 93.8592 68.2594 96.4154L66.5793 98.53L29.0311 99.1584C27.1643 99.1924 25.7133 100.789 25.8576 102.657L28.8529 140.677H28.8444Z" stroke="black" stroke-width="0.75" stroke-linecap="round" stroke-linejoin="round"/>
</g>
<path d="M58.9787 76.77L68.2987 76.77L67.4886 42.4111L74.8711 42.4111C72.7165 36.1312 67.9563 28.6154 63.3715 24C59.1207 29.1618 55.4545 35.2905 52.3312 42.3018L59.9224 42.3018L58.9787 76.77Z" fill="black" stroke="black" stroke-width="0.75" stroke-linecap="round" stroke-linejoin="round"/>
<path d="M57.3098 76.77L66.6297 76.77L65.8197 42.4111L73.2022 42.4111C71.0475 36.1312 66.2874 28.6154 61.7025 24C57.4518 29.1618 53.7856 35.2905 50.6622 42.3018L58.2535 42.3018L57.3098 76.77Z" fill="white" stroke="black" stroke-width="0.75" stroke-linecap="round" stroke-linejoin="round"/>
<defs>
<clipPath id="clip0_154_187">
<rect width="80" height="56" fill="white" transform="translate(25.3574 85)"/>
</clipPath>
</defs>
</svg>
